<?xml version="1.0" encoding="UTF-8"?>
<svg xmlns="http://www.w3.org/2000/svg" style="display: none;">
  <symbol viewBox="0 0 24 24" id="mdf-perm_contact_calendar"><path d="M19 3h-1V1h-2v2H8V1H6v2H5a2 2 0 0 0-2 2v14a2 2 0 0 0 2 2h14c1.1 0 2-.9 2-2V5c0-1.1-.9-2-2-2zm-7 3c1.66 0 3 1.34 3 3s-1.34 3-3 3-3-1.34-3-3 1.34-3 3-3zm6 12H6v-1c0-2 4-3.1 6-3.1s6 1.1 6 3.1v1z"/></symbol>
  <symbol viewBox="0 0 24 24" id="mdf-badge"><path d="M20 7h-5V4c0-1.1-.9-2-2-2h-2c-1.1 0-2 .9-2 2v3H4c-1.1 0-2 .9-2 2v11c0 1.1.9 2 2 2h16c1.1 0 2-.9 2-2V9c0-1.1-.9-2-2-2zM9 12c.83 0 1.5.67 1.5 1.5S9.83 15 9 15s-1.5-.67-1.5-1.5S8.17 12 9 12zm3 6H6v-.75c0-1 2-1.5 3-1.5s3 .5 3 1.5V18zm1-9h-2V4h2v5zm5 7.5h-4V15h4v1.5zm0-3h-4V12h4v1.5z"/></symbol>
  <symbol viewBox="0 0 24 24" id="mdf-contrast"><path d="M12 22c5.52 0 10-4.48 10-10S17.52 2 12 2 2 6.48 2 12s4.48 10 10 10zm1-17.93c3.94.49 7 3.85 7 7.93s-3.05 7.44-7 7.93V4.07z"/></symbol>
  <symbol viewBox="0 0 24 24" id="mdf-format_align_left"><path d="M15 15H3v2h12v-2zm0-8H3v2h12V7zM3 13h18v-2H3v2zm0 8h18v-2H3v2zM3 3v2h18V3H3z"/></symbol>
  <symbol viewBox="0 0 24 24" id="mdf-medical_services"><path d="M20 6h-4V4c0-1.1-.9-2-2-2h-4c-1.1 0-2 .9-2 2v2H4c-1.1 0-2 .9-2 2v12c0 1.1.9 2 2 2h16c1.1 0 2-.9 2-2V8c0-1.1-.9-2-2-2zM10 4h4v2h-4V4zm6 11h-3v3h-2v-3H8v-2h3v-3h2v3h3v2z"/></symbol>
  <symbol viewBox="0 0 24 24" id="mdf-anchor"><path d="m17 15 1.55 1.55c-.96 1.69-3.33 3.04-5.55 3.37V11h3V9h-3V7.82C14.16 7.4 15 6.3 15 5c0-1.65-1.35-3-3-3S9 3.35 9 5c0 1.3.84 2.4 2 2.82V9H8v2h3v8.92c-2.22-.33-4.59-1.68-5.55-3.37L7 15l-4-3v3c0 3.88 4.92 7 9 7s9-3.12 9-7v-3l-4 3zM12 4c.55 0 1 .45 1 1s-.45 1-1 1-1-.45-1-1 .45-1 1-1z"/></symbol>
  <symbol viewBox="0 0 24 24" id="mdf-keyboard_double_arrow_down"><path d="M18 6.41 16.59 5 12 9.58 7.41 5 6 6.41l6 6z"/><path d="m18 13-1.41-1.41L12 16.17l-4.59-4.58L6 13l6 6z"/></symbol>
  <symbol viewBox="0 0 24 24" id="mdf-keyboard_double_arrow_left"><path d="M17.59 18 19 16.59 14.42 12 19 7.41 17.59 6l-6 6z"/><path d="m11 18 1.41-1.41L7.83 12l4.58-4.59L11 6l-6 6z"/></symbol>
  <symbol viewBox="0 0 24 24" id="mdf-keyboard_double_arrow_right"><path d="M6.41 6 5 7.41 9.58 12 5 16.59 6.41 18l6-6z"/><path d="m13 6-1.41 1.41L16.17 12l-4.58 4.59L13 18l6-6z"/></symbol>
  <symbol viewBox="0 0 24 24" id="mdf-keyboard_double_arrow_up"><path d="M6 17.59 7.41 19 12 14.42 16.59 19 18 17.59l-6-6z"/><path d="m6 11 1.41 1.41L12 7.83l4.59 4.58L18 11l-6-6z"/></symbol>
  <symbol viewBox="0 0 24 24" id="mdf-keyboard_arrow_down"><path d="M7.41 8.59 12 13.17l4.59-4.58L18 10l-6 6-6-6 1.41-1.41z"/></symbol>
  <symbol viewBox="0 0 24 24" id="mdf-keyboard_arrow_left"><path d="M15.41 16.59 10.83 12l4.58-4.59L14 6l-6 6 6 6 1.41-1.41z"/></symbol>
  <symbol viewBox="0 0 24 24" id="mdf-keyboard_arrow_right"><path d="M8.59 16.59 13.17 12 8.59 7.41 10 6l6 6-6 6-1.41-1.41z"/></symbol>
  <symbol viewBox="0 0 24 24" id="mdf-keyboard_arrow_up"><path d="M7.41 15.41 12 10.83l4.59 4.58L18 14l-6-6-6 6z"/></symbol>
  <symbol viewBox="0 0 24 24" id="mdf-inventory_2"><path d="M20 2H4c-1 0-2 .9-2 2v3.01c0 .72.43 1.34 1 1.69V20c0 1.1 1.1 2 2 2h14c.9 0 2-.9 2-2V8.7c.57-.35 1-.97 1-1.69V4c0-1.1-1-2-2-2zm-5 12H9v-2h6v2zm5-7H4V4h16v3z"/></symbol>
  <symbol viewBox="0 0 24 24" id="mdf-arrow_downward"><path d="m20 12-1.41-1.41L13 16.17V4h-2v12.17l-5.58-5.59L4 12l8 8 8-8z"/></symbol>
  <symbol viewBox="0 0 24 24" id="mdf-arrow_back"><path d="M20 11H7.83l5.59-5.59L12 4l-8 8 8 8 1.41-1.41L7.83 13H20v-2z"/></symbol>
  <symbol viewBox="0 0 24 24" id="mdf-arrow_forward"><path d="m12 4-1.41 1.41L16.17 11H4v2h12.17l-5.58 5.59L12 20l8-8z"/></symbol>
  <symbol viewBox="0 0 24 24" id="mdf-arrow_upward"><path d="m4 12 1.41 1.41L11 7.83V20h2V7.83l5.58 5.59L20 12l-8-8-8 8z"/></symbol>
  <symbol viewBox="0 0 24 24" id="mdf-sync_alt"><path d="m18 12 4-4-4-4v3H3v2h15zM6 12l-4 4 4 4v-3h15v-2H6z"/></symbol>
  <symbol viewBox="0 0 24 24" id="mdf-height"><path d="M13 6.99h3L12 3 8 6.99h3v10.02H8L12 21l4-3.99h-3z"/></symbol>
  <symbol viewBox="0 0 24 24" id="mdf-emergency"><path d="m20.79 9.23-2-3.46L14 8.54V3h-4v5.54L5.21 5.77l-2 3.46L8 12l-4.79 2.77 2 3.46L10 15.46V21h4v-5.54l4.79 2.77 2-3.46L16 12z"/></symbol>
  <symbol viewBox="0 0 24 24" id="mdf-alternate_email"><path d="M12 2C6.48 2 2 6.48 2 12s4.48 10 10 10h5v-2h-5c-4.34 0-8-3.66-8-8s3.66-8 8-8 8 3.66 8 8v1.43c0 .79-.71 1.57-1.5 1.57s-1.5-.78-1.5-1.57V12c0-2.76-2.24-5-5-5s-5 2.24-5 5 2.24 5 5 5c1.38 0 2.64-.56 3.54-1.47.65.89 1.77 1.47 2.96 1.47 1.97 0 3.5-1.6 3.5-3.57V12c0-5.52-4.48-10-10-10zm0 13c-1.66 0-3-1.34-3-3s1.34-3 3-3 3 1.34 3 3-1.34 3-3 3z"/></symbol>
  <symbol viewBox="0 0 24 24" id="mdf-fast_rewind"><path d="M11 18V6l-8.5 6 8.5 6zm.5-6 8.5 6V6l-8.5 6z"/></symbol>
  <symbol viewBox="0 0 24 24" id="mdf-block"><path d="M12 2C6.48 2 2 6.48 2 12s4.48 10 10 10 10-4.48 10-10S17.52 2 12 2zM4 12c0-4.42 3.58-8 8-8 1.85 0 3.55.63 4.9 1.69L5.69 16.9A7.902 7.902 0 0 1 4 12zm8 8c-1.85 0-3.55-.63-4.9-1.69L18.31 7.1A7.902 7.902 0 0 1 20 12c0 4.42-3.58 8-8 8z"/></symbol>
  <symbol viewBox="0 0 24 24" id="mdf-menu"><path d="M3 18h18v-2H3v2zm0-5h18v-2H3v2zm0-7v2h18V6H3z"/></symbol>
  <symbol viewBox="0 0 24 24" id="mdf-bed"><path d="M21 10.78V8c0-1.65-1.35-3-3-3h-4c-.77 0-1.47.3-2 .78-.53-.48-1.23-.78-2-.78H6C4.35 5 3 6.35 3 8v2.78c-.61.55-1 1.34-1 2.22v6h2v-2h16v2h2v-6c0-.88-.39-1.67-1-2.22zM14 7h4c.55 0 1 .45 1 1v2h-6V8c0-.55.45-1 1-1zM5 8c0-.55.45-1 1-1h4c.55 0 1 .45 1 1v2H5V8z"/></symbol>
  <symbol viewBox="0 0 24 24" id="mdf-notifications_off"><path d="M20 18.69 7.84 6.14 5.27 3.49 4 4.76l2.8 2.8v.01c-.52.99-.8 2.16-.8 3.42v5l-2 2v1h13.73l2 2L21 19.72l-1-1.03zM12 22c1.11 0 2-.89 2-2h-4c0 1.11.89 2 2 2zm6-7.32V11c0-3.08-1.64-5.64-4.5-6.32V4c0-.83-.67-1.5-1.5-1.5s-1.5.67-1.5 1.5v.68c-.15.03-.29.08-.42.12-.1.03-.2.07-.3.11h-.01c-.01 0-.01 0-.02.01-.23.09-.46.2-.68.31 0 0-.01 0-.01.01L18 14.68z"/></symbol>
  <symbol viewBox="0 0 24 24" id="mdf-notifications"><path d="M12 22c1.1 0 2-.9 2-2h-4a2 2 0 0 0 2 2zm6-6v-5c0-3.07-1.64-5.64-4.5-6.32V4c0-.83-.67-1.5-1.5-1.5s-1.5.67-1.5 1.5v.68C7.63 5.36 6 7.92 6 11v5l-2 2v1h16v-1l-2-2z"/></symbol>
  <symbol viewBox="0 0 24 24" id="mdf-cake"><path d="M12 6a2 2 0 0 0 2-2c0-.38-.1-.73-.29-1.03L12 0l-1.71 2.97c-.19.3-.29.65-.29 1.03 0 1.1.9 2 2 2zm4.6 9.99-1.07-1.07-1.08 1.07c-1.3 1.3-3.58 1.31-4.89 0l-1.07-1.07-1.09 1.07C6.75 16.64 5.88 17 4.96 17c-.73 0-1.4-.23-1.96-.61V21c0 .55.45 1 1 1h16c.55 0 1-.45 1-1v-4.61c-.56.38-1.23.61-1.96.61-.92 0-1.79-.36-2.44-1.01zM18 9h-5V7h-2v2H6c-1.66 0-3 1.34-3 3v1.54c0 1.08.88 1.96 1.96 1.96.52 0 1.02-.2 1.38-.57l2.14-2.13 2.13 2.13c.74.74 2.03.74 2.77 0l2.14-2.13 2.13 2.13c.37.37.86.57 1.38.57 1.08 0 1.96-.88 1.96-1.96V12C21 10.34 19.66 9 18 9z"/></symbol>
  <symbol viewBox="0 0 24 24" id="mdf-format_bold"><path d="M15.6 10.79c.97-.67 1.65-1.77 1.65-2.79 0-2.26-1.75-4-4-4H7v14h7.04c2.09 0 3.71-1.7 3.71-3.79 0-1.52-.86-2.82-2.15-3.42zM10 6.5h3c.83 0 1.5.67 1.5 1.5s-.67 1.5-1.5 1.5h-3v-3zm3.5 9H10v-3h3.5c.83 0 1.5.67 1.5 1.5s-.67 1.5-1.5 1.5z"/></symbol>
  <symbol viewBox="0 0 24 24" id="mdf-local_library"><path d="M12 11.55C9.64 9.35 6.48 8 3 8v11c3.48 0 6.64 1.35 9 3.55 2.36-2.19 5.52-3.55 9-3.55V8c-3.48 0-6.64 1.35-9 3.55zM12 8c1.66 0 3-1.34 3-3s-1.34-3-3-3-3 1.34-3 3 1.34 3 3 3z"/></symbol>
  <symbol viewBox="0 0 24 24" id="mdf-book"><path d="M18 2H6c-1.1 0-2 .9-2 2v16c0 1.1.9 2 2 2h12c1.1 0 2-.9 2-2V4c0-1.1-.9-2-2-2zM6 4h5v8l-2.5-1.5L6 12V4z"/></symbol>
  <symbol viewBox="0 0 24 24" id="mdf-bookmark"><path d="M17 3H7c-1.1 0-1.99.9-1.99 2L5 21l7-3 7 3V5c0-1.1-.9-2-2-2z"/></symbol>
  <symbol viewBox="0 0 24 24" id="mdf-business_center"><path d="M10 16v-1H3.01L3 19c0 1.11.89 2 2 2h14c1.11 0 2-.89 2-2v-4h-7v1h-4zm10-9h-4.01V5l-2-2h-4l-2 2v2H4c-1.1 0-2 .9-2 2v3c0 1.11.89 2 2 2h6v-2h4v2h6c1.1 0 2-.9 2-2V9c0-1.1-.9-2-2-2zm-6 0h-4V5h4v2z"/></symbol>
  <symbol viewBox="0 0 24 24" id="mdf-crisis_alert"><path d="M14.5 2.5c0 1.5-1.5 6-1.5 6h-2S9.5 4 9.5 2.5a2.5 2.5 0 0 1 5 0zM12 10c-1.1 0-2 .9-2 2s.9 2 2 2 2-.9 2-2-.9-2-2-2zm4.08-4.89c.18-.75.33-1.47.39-2.06A9.996 9.996 0 0 1 22 12c0 5.52-4.48 10-10 10S2 17.52 2 12c0-3.92 2.25-7.31 5.53-8.95.07.59.21 1.32.39 2.06A8.028 8.028 0 0 0 4 12c0 4.42 3.58 8 8 8s8-3.58 8-8c0-2.93-1.58-5.49-3.92-6.89zM18 12c0 3.31-2.69 6-6 6s-6-2.69-6-6c0-2 .98-3.77 2.48-4.86.23.81.65 2.07.65 2.07C8.43 9.93 8 10.92 8 12c0 2.21 1.79 4 4 4s4-1.79 4-4c0-1.08-.43-2.07-1.13-2.79 0 0 .41-1.22.65-2.07A5.998 5.998 0 0 1 18 12z"/></symbol>
  <symbol viewBox="0 0 24 24" id="mdf-calendar_month"><path d="M19 4h-1V2h-2v2H8V2H6v2H5c-1.11 0-1.99.9-1.99 2L3 20a2 2 0 0 0 2 2h14c1.1 0 2-.9 2-2V6c0-1.1-.9-2-2-2zm0 16H5V10h14v10zM9 14H7v-2h2v2zm4 0h-2v-2h2v2zm4 0h-2v-2h2v2zm-8 4H7v-2h2v2zm4 0h-2v-2h2v2zm4 0h-2v-2h2v2z"/></symbol>
  <symbol viewBox="0 0 24 24" id="mdf-arrow_drop_down"><path d="m7 10 5 5 5-5z"/></symbol>
  <symbol viewBox="0 0 24 24" id="mdf-arrow_left"><path d="m14 7-5 5 5 5V7z"/></symbol>
  <symbol viewBox="0 0 24 24" id="mdf-arrow_right"><path d="m10 17 5-5-5-5v10z"/></symbol>
  <symbol viewBox="0 0 24 24" id="mdf-arrow_drop_up"><path d="m7 14 5-5 5 5z"/></symbol>
  <symbol viewBox="0 0 24 24" id="mdf-verified"><path d="m23 12-2.44-2.79.34-3.69-3.61-.82-1.89-3.2L12 2.96 8.6 1.5 6.71 4.69 3.1 5.5l.34 3.7L1 12l2.44 2.79-.34 3.7 3.61.82L8.6 22.5l3.4-1.47 3.4 1.46 1.89-3.19 3.61-.82-.34-3.69L23 12zm-12.91 4.72-3.8-3.81 1.48-1.48 2.32 2.33 5.85-5.87 1.48 1.48-7.33 7.35z"/></symbol>
  <symbol viewBox="0 0 24 24" id="mdf-insert_chart"><path d="M19 3H5c-1.1 0-2 .9-2 2v14c0 1.1.9 2 2 2h14c1.1 0 2-.9 2-2V5c0-1.1-.9-2-2-2zM9 17H7v-7h2v7zm4 0h-2V7h2v10zm4 0h-2v-4h2v4z"/></symbol>
  <symbol viewBox="0 0 24 24" id="mdf-pie_chart"><path d="M11 2v20c-5.07-.5-9-4.79-9-10s3.93-9.5 9-10zm2.03 0v8.99H22c-.47-4.74-4.24-8.52-8.97-8.99zm0 11.01V22c4.74-.47 8.5-4.25 8.97-8.99h-8.97z"/></symbol>
  <symbol viewBox="0 0 24 24" id="mdf-check_circle"><path d="M12 2C6.48 2 2 6.48 2 12s4.48 10 10 10 10-4.48 10-10S17.52 2 12 2zm-2 15-5-5 1.41-1.41L10 14.17l7.59-7.59L19 8l-9 9z"/></symbol>
  <symbol viewBox="0 0 24 24" id="mdf-check_box"><path d="M19 3H5a2 2 0 0 0-2 2v14a2 2 0 0 0 2 2h14a2 2 0 0 0 2-2V5a2 2 0 0 0-2-2zm-9 14-5-5 1.41-1.41L10 14.17l7.59-7.59L19 8l-9 9z"/></symbol>
  <symbol viewBox="0 0 24 24" id="mdf-check"><path d="M9 16.17 4.83 12l-1.42 1.41L9 19 21 7l-1.41-1.41z"/></symbol>
  <symbol viewBox="0 0 24 24" id="mdf-expand_circle_down"><path d="M12 2C6.48 2 2 6.48 2 12s4.48 10 10 10 10-4.48 10-10S17.52 2 12 2zm0 13.5L7.5 11l1.42-1.41L12 12.67l3.08-3.08L16.5 11 12 15.5z"/></symbol>
  <symbol viewBox="0 0 24 24" id="mdf-expand_more"><path d="M16.59 8.59 12 13.17 7.41 8.59 6 10l6 6 6-6z"/></symbol>
  <symbol viewBox="0 0 24 24" id="mdf-chevron_left"><path d="M15.41 7.41 14 6l-6 6 6 6 1.41-1.41L10.83 12z"/></symbol>
  <symbol viewBox="0 0 24 24" id="mdf-chevron_right"><path d="M10 6 8.59 7.41 13.17 12l-4.58 4.59L10 18l6-6z"/></symbol>
  <symbol viewBox="0 0 24 24" id="mdf-expand_less"><path d="m12 8-6 6 1.41 1.41L12 10.83l4.59 4.58L18 14z"/></symbol>
  <symbol viewBox="0 0 24 24" id="mdf-lens"><path d="M12 2C6.48 2 2 6.48 2 12s4.48 10 10 10 10-4.48 10-10S17.52 2 12 2z"/></symbol>
  <symbol viewBox="0 0 24 24" id="mdf-code"><path d="M9.4 16.6 4.8 12l4.6-4.6L8 6l-6 6 6 6 1.4-1.4zm5.2 0 4.6-4.6-4.6-4.6L16 6l6 6-6 6-1.4-1.4z"/></symbol>
  <symbol viewBox="0 0 24 24" id="mdf-settings"><path d="M19.14 12.94c.04-.3.06-.61.06-.94 0-.32-.02-.64-.07-.94l2.03-1.58a.49.49 0 0 0 .12-.61l-1.92-3.32a.488.488 0 0 0-.59-.22l-2.39.96c-.5-.38-1.03-.7-1.62-.94l-.36-2.54a.484.484 0 0 0-.48-.41h-3.84c-.24 0-.43.17-.47.41l-.36 2.54c-.59.24-1.13.57-1.62.94l-2.39-.96c-.22-.08-.47 0-.59.22L2.74 8.87c-.12.21-.08.47.12.61l2.03 1.58c-.05.3-.09.63-.09.94s.02.64.07.94l-2.03 1.58a.49.49 0 0 0-.12.61l1.92 3.32c.12.22.37.29.59.22l2.39-.96c.5.38 1.03.7 1.62.94l.36 2.54c.05.24.24.41.48.41h3.84c.24 0 .44-.17.47-.41l.36-2.54c.59-.24 1.13-.56 1.62-.94l2.39.96c.22.08.47 0 .59-.22l1.92-3.32c.12-.22.07-.47-.12-.61l-2.01-1.58zM12 15.6c-1.98 0-3.6-1.62-3.6-3.6s1.62-3.6 3.6-3.6 3.6 1.62 3.6 3.6-1.62 3.6-3.6 3.6z"/></symbol>
  <symbol viewBox="0 0 24 24" id="mdf-view_column"><path d="M14.67 5v14H9.33V5h5.34zm1 14H21V5h-5.33v14zm-7.34 0V5H3v14h5.33z"/></symbol>
  <symbol viewBox="0 0 24 24" id="mdf-speaker_notes_off"><path d="m10.54 11-.54-.54L7.54 8 6 6.46 2.38 2.84 1.27 1.73 0 3l2.01 2.01L2 22l4-4h9l5.73 5.73L22 22.46 17.54 18l-7-7zM8 14H6v-2h2v2zm-2-3V9l2 2H6zm14-9H4.08L10 7.92V6h8v2h-7.92l1 1H18v2h-4.92l6.99 6.99C21.14 17.95 22 17.08 22 16V4c0-1.1-.9-2-2-2z"/></symbol>
  <symbol viewBox="0 0 24 24" id="mdf-comment"><path d="M21.99 4c0-1.1-.89-2-1.99-2H4c-1.1 0-2 .9-2 2v12c0 1.1.9 2 2 2h14l4 4-.01-18zM18 14H6v-2h12v2zm0-3H6V9h12v2zm0-3H6V6h12v2z"/></symbol>
  <symbol viewBox="0 0 24 24" id="mdf-forum"><path d="M21 6h-2v9H6v2c0 .55.45 1 1 1h11l4 4V7c0-.55-.45-1-1-1zm-4 6V3c0-.55-.45-1-1-1H3c-.55 0-1 .45-1 1v14l4-4h10c.55 0 1-.45 1-1z"/></symbol>
  <symbol viewBox="0 0 24 24" id="mdf-compress"><path d="M8 19h3v3h2v-3h3l-4-4-4 4zm8-15h-3V1h-2v3H8l4 4 4-4zM4 9v2h16V9H4zm0 3h16v2H4z"/></symbol>
  <symbol viewBox="0 0 24 24" id="mdf-content_copy"><path d="M16 1H4c-1.1 0-2 .9-2 2v14h2V3h12V1zm3 4H8c-1.1 0-2 .9-2 2v14c0 1.1.9 2 2 2h11c1.1 0 2-.9 2-2V7c0-1.1-.9-2-2-2zm0 16H8V7h11v14z"/></symbol>
  <symbol viewBox="0 0 24 24" id="mdf-credit_card"><path d="M20 4H4c-1.11 0-1.99.89-1.99 2L2 18c0 1.11.89 2 2 2h16c1.11 0 2-.89 2-2V6c0-1.11-.89-2-2-2zm0 14H4v-6h16v6zm0-10H4V6h16v2z"/></symbol>
  <symbol viewBox="0 0 24 24" id="mdf-my_location"><path d="M12 8c-2.21 0-4 1.79-4 4s1.79 4 4 4 4-1.79 4-4-1.79-4-4-4zm8.94 3A8.994 8.994 0 0 0 13 3.06V1h-2v2.06A8.994 8.994 0 0 0 3.06 11H1v2h2.06A8.994 8.994 0 0 0 11 20.94V23h2v-2.06A8.994 8.994 0 0 0 20.94 13H23v-2h-2.06zM12 19c-3.87 0-7-3.13-7-7s3.13-7 7-7 7 3.13 7 7-3.13 7-7 7z"/></symbol>
  <symbol viewBox="0 0 24 24" id="mdf-view_in_ar"><path d="m18.25 7.6-5.5-3.18a1.49 1.49 0 0 0-1.5 0L5.75 7.6c-.46.27-.75.76-.75 1.3v6.35c0 .54.29 1.03.75 1.3l5.5 3.18c.46.27 1.04.27 1.5 0l5.5-3.18c.46-.27.75-.76.75-1.3V8.9c0-.54-.29-1.03-.75-1.3zM7 14.96v-4.62l4 2.32v4.61l-4-2.31zm5-4.03L8 8.61l4-2.31 4 2.31-4 2.32zm1 6.34v-4.61l4-2.32v4.62l-4 2.31zM7 2H3.5C2.67 2 2 2.67 2 3.5V7h2V4h3V2zm10 0h3.5c.83 0 1.5.67 1.5 1.5V7h-2V4h-3V2zM7 22H3.5c-.83 0-1.5-.67-1.5-1.5V17h2v3h3v2zm10 0h3.5c.83 0 1.5-.67 1.5-1.5V17h-2v3h-3v2z"/></symbol>
  <symbol viewBox="0 0 24 24" id="mdf-chat_bubble"><path d="M20 2H4c-1.1 0-2 .9-2 2v18l4-4h14c1.1 0 2-.9 2-2V4c0-1.1-.9-2-2-2z"/></symbol>
  <symbol viewBox="0 0 24 24" id="mdf-favorite"><path d="m12 21.35-1.45-1.32C5.4 15.36 2 12.28 2 8.5 2 5.42 4.42 3 7.5 3c1.74 0 3.41.81 4.5 2.09C13.09 3.81 14.76 3 16.5 3 19.58 3 22 5.42 22 8.5c0 3.78-3.4 6.86-8.55 11.54L12 21.35z"/></symbol>
  <symbol viewBox="0 0 24 24" id="mdf-link"><path d="M3.9 12c0-1.71 1.39-3.1 3.1-3.1h4V7H7c-2.76 0-5 2.24-5 5s2.24 5 5 5h4v-1.9H7c-1.71 0-3.1-1.39-3.1-3.1zM8 13h8v-2H8v2zm9-6h-4v1.9h4c1.71 0 3.1 1.39 3.1 3.1s-1.39 3.1-3.1 3.1h-4V17h4c2.76 0 5-2.24 5-5s-2.24-5-5-5z"/></symbol>
  <symbol viewBox="0 0 24 24" id="mdf-notifications_none"><path d="M12 22c1.1 0 2-.9 2-2h-4c0 1.1.9 2 2 2zm6-6v-5c0-3.07-1.63-5.64-4.5-6.32V4c0-.83-.67-1.5-1.5-1.5s-1.5.67-1.5 1.5v.68C7.64 5.36 6 7.92 6 11v5l-2 2v1h16v-1l-2-2zm-2 1H8v-6c0-2.48 1.51-4.5 4-4.5s4 2.02 4 4.5v6z"/></symbol>
  <symbol viewBox="0 0 24 24" id="mdf-favorite_border"><path d="M16.5 3c-1.74 0-3.41.81-4.5 2.09C10.91 3.81 9.24 3 7.5 3 4.42 3 2 5.42 2 8.5c0 3.78 3.4 6.86 8.55 11.54L12 21.35l1.45-1.32C18.6 15.36 22 12.28 22 8.5 22 5.42 19.58 3 16.5 3zm-4.4 15.55-.1.1-.1-.1C7.14 14.24 4 11.39 4 8.5 4 6.5 5.5 5 7.5 5c1.54 0 3.04.99 3.57 2.36h1.87C13.46 5.99 14.96 5 16.5 5c2 0 3.5 1.5 3.5 3.5 0 2.89-3.14 5.74-7.9 10.05z"/></symbol>
  <symbol viewBox="0 0 24 24" id="mdf-notification_important"><path d="M18 16v-5c0-3.07-1.64-5.64-4.5-6.32V4c0-.83-.67-1.5-1.5-1.5s-1.5.67-1.5 1.5v.68C7.63 5.36 6 7.92 6 11v5l-2 2v1h16v-1l-2-2zm-5 0h-2v-2h2v2zm0-4h-2V8h2v4zm-1 10c1.1 0 2-.9 2-2h-4a2 2 0 0 0 2 2z"/></symbol>
  <symbol viewBox="0 0 24 24" id="mdf-computer"><path d="M20 18c1.1 0 1.99-.9 1.99-2L22 6c0-1.1-.9-2-2-2H4c-1.1 0-2 .9-2 2v10c0 1.1.9 2 2 2H0v2h24v-2h-4zM4 6h16v10H4V6z"/></symbol>
  <symbol viewBox="0 0 24 24" id="mdf-close_fullscreen"><path d="M22 3.41 16.71 8.7 20 12h-8V4l3.29 3.29L20.59 2 22 3.41zM3.41 22l5.29-5.29L12 20v-8H4l3.29 3.29L2 20.59 3.41 22z"/></symbol>
  <symbol viewBox="0 0 24 24" id="mdf-add_reaction"><path d="M18 9V7h-2V2.84A9.929 9.929 0 0 0 11.99 2C6.47 2 2 6.48 2 12s4.47 10 9.99 10C17.52 22 22 17.52 22 12c0-1.05-.17-2.05-.47-3H18zm-2.5-1c.83 0 1.5.67 1.5 1.5s-.67 1.5-1.5 1.5-1.5-.67-1.5-1.5.67-1.5 1.5-1.5zm-7 0c.83 0 1.5.67 1.5 1.5S9.33 11 8.5 11 7 10.33 7 9.5 7.67 8 8.5 8zm3.5 9.5c-2.33 0-4.31-1.46-5.11-3.5h10.22c-.8 2.04-2.78 3.5-5.11 3.5zM22 3h2v2h-2v2h-2V5h-2V3h2V1h2v2z"/></symbol>
  <symbol viewBox="0 0 24 24" id="mdf-open_in_full"><path d="M21 11V3h-8l3.29 3.29-10 10L3 13v8h8l-3.29-3.29 10-10z"/></symbol>
  <symbol viewBox="0 0 24 24" id="mdf-interests"><path d="M7.02 13c-2.21 0-4 1.79-4 4s1.79 4 4 4 4-1.79 4-4-1.79-4-4-4zM13 13v8h8v-8h-8zM7 2l-5 9h10L7 2zm12.25.5c-1.06 0-1.81.56-2.25 1.17-.44-.61-1.19-1.17-2.25-1.17C13.19 2.5 12 3.78 12 5.25c0 2 2.42 3.42 5 5.75 2.58-2.33 5-3.75 5-5.75 0-1.47-1.19-2.75-2.75-2.75z"/></symbol>
  <symbol viewBox="0 0 24 24" id="mdf-file_download"><path d="M19 9h-4V3H9v6H5l7 7 7-7zM5 18v2h14v-2H5z"/></symbol>
  <symbol viewBox="0 0 24 24" id="mdf-more_horiz"><path d="M6 10c-1.1 0-2 .9-2 2s.9 2 2 2 2-.9 2-2-.9-2-2-2zm12 0c-1.1 0-2 .9-2 2s.9 2 2 2 2-.9 2-2-.9-2-2-2zm-6 0c-1.1 0-2 .9-2 2s.9 2 2 2 2-.9 2-2-.9-2-2-2z"/></symbol>
  <symbol viewBox="0 0 24 24" id="mdf-more_vert"><path d="M12 8c1.1 0 2-.9 2-2s-.9-2-2-2-2 .9-2 2 .9 2 2 2zm0 2c-1.1 0-2 .9-2 2s.9 2 2 2 2-.9 2-2-.9-2-2-2zm0 6c-1.1 0-2 .9-2 2s.9 2 2 2 2-.9 2-2-.9-2-2-2z"/></symbol>
  <symbol viewBox="0 0 24 24" id="mdf-mail"><path d="M20 4H4c-1.1 0-1.99.9-1.99 2L2 18c0 1.1.9 2 2 2h16c1.1 0 2-.9 2-2V6c0-1.1-.9-2-2-2zm0 4-8 5-8-5V6l8 5 8-5v2z"/></symbol>
  <symbol viewBox="0 0 24 24" id="mdf-error"><path d="M12 2C6.48 2 2 6.48 2 12s4.48 10 10 10 10-4.48 10-10S17.52 2 12 2zm1 15h-2v-2h2v2zm0-4h-2V7h2v6z"/></symbol>
  <symbol viewBox="0 0 24 24" id="mdf-warning"><path d="M1 21h22L12 2 1 21zm12-3h-2v-2h2v2zm0-4h-2v-4h2v4z"/></symbol>
  <symbol viewBox="0 0 24 24" id="mdf-launch"><path d="M19 19H5V5h7V3H5a2 2 0 0 0-2 2v14a2 2 0 0 0 2 2h14c1.1 0 2-.9 2-2v-7h-2v7zM14 3v2h3.59l-9.83 9.83 1.41 1.41L19 6.41V10h2V3h-7z"/></symbol>
  <symbol viewBox="0 0 24 24" id="mdf-android"><path d="m17.6 9.48 1.84-3.18c.16-.31.04-.69-.26-.85a.637.637 0 0 0-.83.22l-1.88 3.24a11.463 11.463 0 0 0-8.94 0L5.65 5.67a.643.643 0 0 0-.87-.2c-.28.18-.37.54-.22.83L6.4 9.48A10.78 10.78 0 0 0 1 18h22a10.78 10.78 0 0 0-5.4-8.52zM7 15.25a1.25 1.25 0 1 1 0-2.5 1.25 1.25 0 0 1 0 2.5zm10 0a1.25 1.25 0 1 1 0-2.5 1.25 1.25 0 0 1 0 2.5z"/></symbol>
  <symbol viewBox="0 0 24 24" id="mdf-insert_invitation"><path d="M17 12h-5v5h5v-5zM16 1v2H8V1H6v2H5c-1.11 0-1.99.9-1.99 2L3 19a2 2 0 0 0 2 2h14c1.1 0 2-.9 2-2V5c0-1.1-.9-2-2-2h-1V1h-2zm3 18H5V8h14v11z"/></symbol>
  <symbol viewBox="0 0 24 24" id="mdf-assessment"><path d="M19 3H5c-1.1 0-2 .9-2 2v14c0 1.1.9 2 2 2h14c1.1 0 2-.9 2-2V5c0-1.1-.9-2-2-2zM9 17H7v-7h2v7zm4 0h-2V7h2v10zm4 0h-2v-4h2v4z"/></symbol>
  <symbol viewBox="0 0 24 24" id="mdf-circle"><path d="M12 2C6.47 2 2 6.47 2 12s4.47 10 10 10 10-4.47 10-10S17.53 2 12 2z"/></symbol>
  <symbol viewBox="0 0 24 24" id="mdf-content_paste"><path d="M19 2h-4.18C14.4.84 13.3 0 12 0c-1.3 0-2.4.84-2.82 2H5c-1.1 0-2 .9-2 2v16c0 1.1.9 2 2 2h14c1.1 0 2-.9 2-2V4c0-1.1-.9-2-2-2zm-7 0c.55 0 1 .45 1 1s-.45 1-1 1-1-.45-1-1 .45-1 1-1zm7 18H5V4h2v3h10V4h2v16z"/></symbol>
  <symbol viewBox="0 0 24 24" id="mdf-schedule"><path d="M11.99 2C6.47 2 2 6.48 2 12s4.47 10 9.99 10C17.52 22 22 17.52 22 12S17.52 2 11.99 2zM12 20c-4.42 0-8-3.58-8-8s3.58-8 8-8 8 3.58 8 8-3.58 8-8 8z"/><path d="M12.5 7H11v6l5.25 3.15.75-1.23-4.5-2.67z"/></symbol>
  <symbol viewBox="0 0 24 24" id="mdf-copyright"><path d="M11.88 9.14c1.28.06 1.61 1.15 1.63 1.66h1.79c-.08-1.98-1.49-3.19-3.45-3.19C9.64 7.61 8 9 8 12.14c0 1.94.93 4.24 3.84 4.24 2.22 0 3.41-1.65 3.44-2.95h-1.79c-.03.59-.45 1.38-1.63 1.44-1.31-.04-1.86-1.06-1.86-2.73 0-2.89 1.28-2.98 1.88-3zM12 2C6.48 2 2 6.48 2 12s4.48 10 10 10 10-4.48 10-10S17.52 2 12 2zm0 18c-4.41 0-8-3.59-8-8s3.59-8 8-8 8 3.59 8 8-3.59 8-8 8z"/></symbol>
  <symbol viewBox="0 0 24 24" id="mdf-radio_button_checked"><path d="M12 7c-2.76 0-5 2.24-5 5s2.24 5 5 5 5-2.24 5-5-2.24-5-5-5zm0-5C6.48 2 2 6.48 2 12s4.48 10 10 10 10-4.48 10-10S17.52 2 12 2zm0 18c-4.42 0-8-3.58-8-8s3.58-8 8-8 8 3.58 8 8-3.58 8-8 8z"/></symbol>
  <symbol viewBox="0 0 24 24" id="mdf-edit"><path d="M3 17.25V21h3.75L17.81 9.94l-3.75-3.75L3 17.25zM20.71 7.04a.996.996 0 0 0 0-1.41l-2.34-2.34a.996.996 0 0 0-1.41 0l-1.83 1.83 3.75 3.75 1.83-1.83z"/></symbol>
  <symbol viewBox="0 0 24 24" id="mdf-visibility_off"><path d="M12 7c2.76 0 5 2.24 5 5 0 .65-.13 1.26-.36 1.83l2.92 2.92c1.51-1.26 2.7-2.89 3.43-4.75-1.73-4.39-6-7.5-11-7.5-1.4 0-2.74.25-3.98.7l2.16 2.16C10.74 7.13 11.35 7 12 7zM2 4.27l2.28 2.28.46.46A11.804 11.804 0 0 0 1 12c1.73 4.39 6 7.5 11 7.5 1.55 0 3.03-.3 4.38-.84l.42.42L19.73 22 21 20.73 3.27 3 2 4.27zM7.53 9.8l1.55 1.55c-.05.21-.08.43-.08.65 0 1.66 1.34 3 3 3 .22 0 .44-.03.65-.08l1.55 1.55c-.67.33-1.41.53-2.2.53-2.76 0-5-2.24-5-5 0-.79.2-1.53.53-2.2zm4.31-.78 3.15 3.15.02-.16c0-1.66-1.34-3-3-3l-.17.01z"/></symbol>
  <symbol viewBox="0 0 24 24" id="mdf-visibility"><path d="M12 4.5C7 4.5 2.73 7.61 1 12c1.73 4.39 6 7.5 11 7.5s9.27-3.11 11-7.5c-1.73-4.39-6-7.5-11-7.5zM12 17c-2.76 0-5-2.24-5-5s2.24-5 5-5 5 2.24 5 5-2.24 5-5 5zm0-8c-1.66 0-3 1.34-3 3s1.34 3 3 3 3-1.34 3-3-1.34-3-3-3z"/></symbol>
  <symbol viewBox="0 0 24 24" id="mdf-description"><path d="M14 2H6c-1.1 0-1.99.9-1.99 2L4 20c0 1.1.89 2 1.99 2H18c1.1 0 2-.9 2-2V8l-6-6zm2 16H8v-2h8v2zm0-4H8v-2h8v2zm-3-5V3.5L18.5 9H13z"/></symbol>
  <symbol viewBox="0 0 24 24" id="mdf-sentiment_dissatisfied"><circle cx="15.5" cy="9.5" r="1.5"/><circle cx="8.5" cy="9.5" r="1.5"/><path d="M11.99 2C6.47 2 2 6.48 2 12s4.47 10 9.99 10C17.52 22 22 17.52 22 12S17.52 2 11.99 2zM12 20c-4.42 0-8-3.58-8-8s3.58-8 8-8 8 3.58 8 8-3.58 8-8 8zm0-3.5c.73 0 1.39.19 1.97.53.12-.14.86-.98 1.01-1.14A5.39 5.39 0 0 0 12 15c-1.11 0-2.13.33-2.99.88.97 1.09.01.02 1.01 1.14.59-.33 1.25-.52 1.98-.52z"/></symbol>
  <symbol viewBox="0 0 24 24" id="mdf-image"><path d="M21 19V5c0-1.1-.9-2-2-2H5c-1.1 0-2 .9-2 2v14c0 1.1.9 2 2 2h14c1.1 0 2-.9 2-2zM8.5 13.5l2.5 3.01L14.5 12l4.5 6H5l3.5-4.5z"/></symbol>
  <symbol viewBox="0 0 24 24" id="mdf-list_alt"><path d="M19 5v14H5V5h14m1.1-2H3.9c-.5 0-.9.4-.9.9v16.2c0 .4.4.9.9.9h16.2c.4 0 .9-.5.9-.9V3.9c0-.5-.5-.9-.9-.9zM11 7h6v2h-6V7zm0 4h6v2h-6v-2zm0 4h6v2h-6zM7 7h2v2H7zm0 4h2v2H7zm0 4h2v2H7z"/></symbol>
  <symbol viewBox="0 0 24 24" id="mdf-sentiment_neutral"><path d="M9 15.5h6v1H9v-1z"/><circle cx="15.5" cy="9.5" r="1.5"/><circle cx="8.5" cy="9.5" r="1.5"/><path d="M11.99 2C6.47 2 2 6.48 2 12s4.47 10 9.99 10C17.52 22 22 17.52 22 12S17.52 2 11.99 2zM12 20c-4.42 0-8-3.58-8-8s3.58-8 8-8 8 3.58 8 8-3.58 8-8 8z"/></symbol>
  <symbol viewBox="0 0 24 24" id="mdf-dark_mode"><path d="M12 3a9 9 0 1 0 9 9c0-.46-.04-.92-.1-1.36a5.389 5.389 0 0 1-4.4 2.26 5.403 5.403 0 0 1-3.14-9.8c-.44-.06-.9-.1-1.36-.1z"/></symbol>
  <symbol viewBox="0 0 24 24" id="mdf-sentiment_satisfied"><circle cx="15.5" cy="9.5" r="1.5"/><circle cx="8.5" cy="9.5" r="1.5"/><path d="M11.99 2C6.47 2 2 6.48 2 12s4.47 10 9.99 10C17.52 22 22 17.52 22 12S17.52 2 11.99 2zM12 20c-4.42 0-8-3.58-8-8s3.58-8 8-8 8 3.58 8 8-3.58 8-8 8zm0-4c-.73 0-1.38-.18-1.96-.52-.12.14-.86.98-1.01 1.15a5.49 5.49 0 0 0 5.95-.01c-.97-1.09-.01-.02-1.01-1.15-.59.35-1.24.53-1.97.53z"/></symbol>
  <symbol viewBox="0 0 24 24" id="mdf-square"><path d="M3 3h18v18H3z"/></symbol>
  <symbol viewBox="0 0 24 24" id="mdf-star_outline"><path d="m22 9.24-7.19-.62L12 2 9.19 8.63 2 9.24l5.46 4.73L5.82 21 12 17.27 18.18 21l-1.63-7.03L22 9.24zM12 15.4l-3.76 2.27 1-4.28-3.32-2.88 4.38-.38L12 6.1l1.71 4.04 4.38.38-3.32 2.88 1 4.28L12 15.4z"/></symbol>
  <symbol viewBox="0 0 24 24" id="mdf-light_mode"><path d="M12 7c-2.76 0-5 2.24-5 5s2.24 5 5 5 5-2.24 5-5-2.24-5-5-5zM2 13h2c.55 0 1-.45 1-1s-.45-1-1-1H2c-.55 0-1 .45-1 1s.45 1 1 1zm18 0h2c.55 0 1-.45 1-1s-.45-1-1-1h-2c-.55 0-1 .45-1 1s.45 1 1 1zM11 2v2c0 .55.45 1 1 1s1-.45 1-1V2c0-.55-.45-1-1-1s-1 .45-1 1zm0 18v2c0 .55.45 1 1 1s1-.45 1-1v-2c0-.55-.45-1-1-1s-1 .45-1 1zM5.99 4.58a.996.996 0 0 0-1.41 0 .996.996 0 0 0 0 1.41l1.06 1.06c.39.39 1.03.39 1.41 0s.39-1.03 0-1.41L5.99 4.58zm12.37 12.37a.996.996 0 0 0-1.41 0 .996.996 0 0 0 0 1.41l1.06 1.06c.39.39 1.03.39 1.41 0a.996.996 0 0 0 0-1.41l-1.06-1.06zm1.06-10.96a.996.996 0 0 0 0-1.41.996.996 0 0 0-1.41 0l-1.06 1.06c-.39.39-.39 1.03 0 1.41s1.03.39 1.41 0l1.06-1.06zM7.05 18.36a.996.996 0 0 0 0-1.41.996.996 0 0 0-1.41 0l-1.06 1.06c-.39.39-.39 1.03 0 1.41s1.03.39 1.41 0l1.06-1.06z"/></symbol>
  <symbol viewBox="0 0 24 24" id="mdf-thumb_down"><path d="M15 3H6c-.83 0-1.54.5-1.84 1.22l-3.02 7.05c-.09.23-.14.47-.14.73v2c0 1.1.9 2 2 2h6.31l-.95 4.57-.03.32c0 .41.17.79.44 1.06L9.83 23l6.59-6.59c.36-.36.58-.86.58-1.41V5c0-1.1-.9-2-2-2zm4 0v12h4V3h-4z"/></symbol>
  <symbol viewBox="0 0 24 24" id="mdf-thumb_up"><path d="M1 21h4V9H1v12zm22-11c0-1.1-.9-2-2-2h-6.31l.95-4.57.03-.32c0-.41-.17-.79-.44-1.06L14.17 1 7.59 7.59C7.22 7.95 7 8.45 7 9v10c0 1.1.9 2 2 2h9c.83 0 1.54-.5 1.84-1.22l3.02-7.05c.09-.23.14-.47.14-.73v-2z"/></symbol>
  <symbol viewBox="0 0 24 24" id="mdf-delete"><path d="M6 19c0 1.1.9 2 2 2h8c1.1 0 2-.9 2-2V7H6v12zM19 4h-3.5l-1-1h-5l-1 1H5v2h14V4z"/></symbol>
  <symbol viewBox="0 0 24 24" id="mdf-fast_forward"><path d="m4 18 8.5-6L4 6v12zm9-12v12l8.5-6L13 6z"/></symbol>
  <symbol viewBox="0 0 24 24" id="mdf-audio_file"><path d="M14 2H6c-1.1 0-1.99.9-1.99 2L4 20c0 1.1.89 2 1.99 2H18c1.1 0 2-.9 2-2V8l-6-6zm2 11h-3v3.75c0 1.24-1.01 2.25-2.25 2.25S8.5 17.99 8.5 16.75s1.01-2.25 2.25-2.25c.46 0 .89.14 1.25.38V11h4v2zm-3-4V3.5L18.5 9H13z"/></symbol>
  <symbol viewBox="0 0 24 24" id="mdf-insert_photo"><path d="M21 19V5c0-1.1-.9-2-2-2H5c-1.1 0-2 .9-2 2v14c0 1.1.9 2 2 2h14c1.1 0 2-.9 2-2zM8.5 13.5l2.5 3.01L14.5 12l4.5 6H5l3.5-4.5z"/></symbol>
  <symbol viewBox="0 0 24 24" id="mdf-receipt_long"><path d="M19.5 3.5 18 2l-1.5 1.5L15 2l-1.5 1.5L12 2l-1.5 1.5L9 2 7.5 3.5 6 2v14H3v3c0 1.66 1.34 3 3 3h12c1.66 0 3-1.34 3-3V2l-1.5 1.5zM19 19c0 .55-.45 1-1 1s-1-.45-1-1v-3H8V5h11v14z"/><path d="M9 7h6v2H9zm7 0h2v2h-2zm-7 3h6v2H9zm7 0h2v2h-2z"/></symbol>
  <symbol viewBox="0 0 24 24" id="mdf-video_file"><path d="M14 2H6.01a2 2 0 0 0-2 2L4 20c0 1.1.9 2 2 2h12c1.1 0 2-.9 2-2V8l-6-6zm-1 7V3.5L18.5 9H13zm1 5 2-1.06v4.12L14 16v1c0 .55-.45 1-1 1H9c-.55 0-1-.45-1-1v-4c0-.55.45-1 1-1h4c.55 0 1 .45 1 1v1z"/></symbol>
  <symbol viewBox="0 0 24 24" id="mdf-insert_drive_file"><path d="M6 2c-1.1 0-1.99.9-1.99 2L4 20c0 1.1.89 2 1.99 2H18c1.1 0 2-.9 2-2V8l-6-6H6zm7 7V3.5L18.5 9H13z"/></symbol>
  <symbol viewBox="0 0 24 24" id="mdf-filter_alt"><path d="M4.25 5.61C6.27 8.2 10 13 10 13v6c0 .55.45 1 1 1h2c.55 0 1-.45 1-1v-6s3.72-4.8 5.74-7.39A.998.998 0 0 0 18.95 4H5.04c-.83 0-1.3.95-.79 1.61z"/></symbol>
  <symbol viewBox="0 0 24 24" id="mdf-flag"><path d="M14.4 6 14 4H5v17h2v-7h5.6l.4 2h7V6z"/></symbol>
  <symbol viewBox="0 0 24 24" id="mdf-folder_open"><path d="M20 6h-8l-2-2H4c-1.1 0-1.99.9-1.99 2L2 18c0 1.1.9 2 2 2h16c1.1 0 2-.9 2-2V8c0-1.1-.9-2-2-2zm0 12H4V8h16v10z"/></symbol>
  <symbol viewBox="0 0 24 24" id="mdf-folder"><path d="M10 4H4c-1.1 0-1.99.9-1.99 2L2 18c0 1.1.9 2 2 2h16c1.1 0 2-.9 2-2V8c0-1.1-.9-2-2-2h-8l-2-2z"/></symbol>
  <symbol viewBox="0 0 24 24" id="mdf-gavel"><path d="m5.25 8.069 2.83-2.827 14.134 14.15-2.83 2.827zm4.236-4.242L12.314.998l5.657 5.656-2.828 2.83zM.999 12.315l2.828-2.829 5.657 5.657-2.828 2.828zM1 21h12v2H1z"/></symbol>
  <symbol viewBox="0 0 24 24" id="mdf-public"><path d="M12 2C6.48 2 2 6.48 2 12s4.48 10 10 10 10-4.48 10-10S17.52 2 12 2zm-1 17.93c-3.95-.49-7-3.85-7-7.93 0-.62.08-1.21.21-1.79L9 15v1c0 1.1.9 2 2 2v1.93zm6.9-2.54c-.26-.81-1-1.39-1.9-1.39h-1v-3c0-.55-.45-1-1-1H8v-2h2c.55 0 1-.45 1-1V7h2c1.1 0 2-.9 2-2v-.41c2.93 1.19 5 4.06 5 7.41 0 2.08-.8 3.97-2.1 5.39z"/></symbol>
  <symbol viewBox="0 0 24 24" id="mdf-language"><path d="M11.99 2C6.47 2 2 6.48 2 12s4.47 10 9.99 10C17.52 22 22 17.52 22 12S17.52 2 11.99 2zm6.93 6h-2.95a15.65 15.65 0 0 0-1.38-3.56A8.03 8.03 0 0 1 18.92 8zM12 4.04c.83 1.2 1.48 2.53 1.91 3.96h-3.82c.43-1.43 1.08-2.76 1.91-3.96zM4.26 14C4.1 13.36 4 12.69 4 12s.1-1.36.26-2h3.38c-.08.66-.14 1.32-.14 2 0 .68.06 1.34.14 2H4.26zm.82 2h2.95c.32 1.25.78 2.45 1.38 3.56A7.987 7.987 0 0 1 5.08 16zm2.95-8H5.08a7.987 7.987 0 0 1 4.33-3.56A15.65 15.65 0 0 0 8.03 8zM12 19.96c-.83-1.2-1.48-2.53-1.91-3.96h3.82c-.43 1.43-1.08 2.76-1.91 3.96zM14.34 14H9.66c-.09-.66-.16-1.32-.16-2 0-.68.07-1.35.16-2h4.68c.09.65.16 1.32.16 2 0 .68-.07 1.34-.16 2zm.25 5.56c.6-1.11 1.06-2.31 1.38-3.56h2.95a8.03 8.03 0 0 1-4.33 3.56zM16.36 14c.08-.66.14-1.32.14-2 0-.68-.06-1.34-.14-2h3.38c.16.64.26 1.31.26 2s-.1 1.36-.26 2h-3.38z"/></symbol>
  <symbol viewBox="0 0 24 24" id="mdf-arrow_right_alt"><path d="M16.01 11H4v2h12.01v3L20 12l-3.99-4z"/></symbol>
  <symbol viewBox="0 0 24 24" id="mdf-handshake"><path d="M16.48 10.41c-.39.39-1.04.39-1.43 0l-4.47-4.46-7.05 7.04-.66-.63a3 3 0 0 1 0-4.24l4.24-4.24a3 3 0 0 1 4.24 0L16.48 9c.39.39.39 1.02 0 1.41zm.7-2.12c.78.78.78 2.05 0 2.83-1.27 1.27-2.61.22-2.83 0l-3.76-3.76-5.57 5.57a.996.996 0 0 0 0 1.41c.39.39 1.02.39 1.42 0l4.62-4.62.71.71-4.62 4.62a.996.996 0 0 0 0 1.41c.39.39 1.02.39 1.42 0l4.62-4.62.71.71-4.62 4.62a.996.996 0 1 0 1.41 1.41l4.62-4.62.71.71-4.62 4.62a.996.996 0 1 0 1.41 1.41l8.32-8.34a3 3 0 0 0 0-4.24l-4.24-4.24a3.001 3.001 0 0 0-4.18-.06l4.47 4.47z"/></symbol>
  <symbol viewBox="0 0 24 24" id="mdf-tag"><path d="M20 10V8h-4V4h-2v4h-4V4H8v4H4v2h4v4H4v2h4v4h2v-4h4v4h2v-4h4v-2h-4v-4h4zm-6 4h-4v-4h4v4z"/></symbol>
  <symbol viewBox="0 0 24 24" id="mdf-history"><path d="M13 3a9 9 0 0 0-9 9H1l3.89 3.89.07.14L9 12H6c0-3.87 3.13-7 7-7s7 3.13 7 7-3.13 7-7 7c-1.93 0-3.68-.79-4.94-2.06l-1.42 1.42A8.954 8.954 0 0 0 13 21a9 9 0 0 0 0-18zm-1 5v5l4.28 2.54.72-1.21-3.5-2.08V8H12z"/></symbol>
  <symbol viewBox="0 0 24 24" id="mdf-home"><path d="M10 20v-6h4v6h5v-8h3L12 3 2 12h3v8z"/></symbol>
  <symbol viewBox="0 0 24 24" id="mdf-hourglass_top"><path d="m6 2 .01 6L10 12l-3.99 4.01L6 22h12v-6l-4-4 4-3.99V2H6zm10 14.5V20H8v-3.5l4-4 4 4z"/></symbol>
  <symbol viewBox="0 0 24 24" id="mdf-panorama"><path d="M23 18V6c0-1.1-.9-2-2-2H3c-1.1 0-2 .9-2 2v12c0 1.1.9 2 2 2h18c1.1 0 2-.9 2-2zM8.5 12.5l2.5 3.01L14.5 11l4.5 6H5l3.5-4.5z"/></symbol>
  <symbol viewBox="0 0 24 24" id="mdf-inbox"><path d="M19 3H4.99c-1.11 0-1.98.89-1.98 2L3 19c0 1.1.88 2 1.99 2H19c1.1 0 2-.9 2-2V5a2 2 0 0 0-2-2zm0 12h-4c0 1.66-1.35 3-3 3s-3-1.34-3-3H4.99V5H19v10z"/></symbol>
  <symbol viewBox="0 0 24 24" id="mdf-info"><path d="M12 2C6.48 2 2 6.48 2 12s4.48 10 10 10 10-4.48 10-10S17.52 2 12 2zm1 15h-2v-6h2v6zm0-8h-2V7h2v2z"/></symbol>
  <symbol viewBox="0 0 24 24" id="mdf-format_italic"><path d="M10 4v3h2.21l-3.42 8H6v3h8v-3h-2.21l3.42-8H18V4z"/></symbol>
  <symbol viewBox="0 0 24 24" id="mdf-key"><path d="M21 10h-8.35A5.99 5.99 0 0 0 7 6c-3.31 0-6 2.69-6 6s2.69 6 6 6a5.99 5.99 0 0 0 5.65-4H13l2 2 2-2 2 2 4-4.04L21 10zM7 15c-1.65 0-3-1.35-3-3s1.35-3 3-3 3 1.35 3 3-1.35 3-3 3z"/></symbol>
  <symbol viewBox="0 0 24 24" id="mdf-keyboard"><path d="M20 5H4c-1.1 0-1.99.9-1.99 2L2 17c0 1.1.9 2 2 2h16c1.1 0 2-.9 2-2V7c0-1.1-.9-2-2-2zm-9 3h2v2h-2V8zm0 3h2v2h-2v-2zM8 8h2v2H8V8zm0 3h2v2H8v-2zm-1 2H5v-2h2v2zm0-3H5V8h2v2zm9 7H8v-2h8v2zm0-4h-2v-2h2v2zm0-3h-2V8h2v2zm3 3h-2v-2h2v2zm0-3h-2V8h2v2z"/></symbol>
  <symbol viewBox="0 0 24 24" id="mdf-layers"><path d="m11.99 18.54-7.37-5.73L3 14.07l9 7 9-7-1.63-1.27-7.38 5.74zM12 16l7.36-5.73L21 9l-9-7-9 7 1.63 1.27L12 16z"/></symbol>
  <symbol viewBox="0 0 24 24" id="mdf-format_list_numbered"><path d="M2 17h2v.5H3v1h1v.5H2v1h3v-4H2v1zm1-9h1V4H2v1h1v3zm-1 3h1.8L2 13.1v.9h3v-1H3.2L5 10.9V10H2v1zm5-6v2h14V5H7zm0 14h14v-2H7v2zm0-6h14v-2H7v2z"/></symbol>
  <symbol viewBox="0 0 24 24" id="mdf-format_list_bulleted"><path d="M4 10.5c-.83 0-1.5.67-1.5 1.5s.67 1.5 1.5 1.5 1.5-.67 1.5-1.5-.67-1.5-1.5-1.5zm0-6c-.83 0-1.5.67-1.5 1.5S3.17 7.5 4 7.5 5.5 6.83 5.5 6 4.83 4.5 4 4.5zm0 12c-.83 0-1.5.68-1.5 1.5s.68 1.5 1.5 1.5 1.5-.68 1.5-1.5-.67-1.5-1.5-1.5zM7 19h14v-2H7v2zm0-6h14v-2H7v2zm0-8v2h14V5H7z"/></symbol>
  <symbol viewBox="0 0 24 24" id="mdf-list"><path d="M3 13h2v-2H3v2zm0 4h2v-2H3v2zm0-8h2V7H3v2zm4 4h14v-2H7v2zm0 4h14v-2H7v2zM7 7v2h14V7H7z"/></symbol>
  <symbol viewBox="0 0 24 24" id="mdf-lock"><path d="M18 8h-1V6c0-2.76-2.24-5-5-5S7 3.24 7 6v2H6c-1.1 0-2 .9-2 2v10c0 1.1.9 2 2 2h12c1.1 0 2-.9 2-2V10c0-1.1-.9-2-2-2zm-6 9c-1.1 0-2-.9-2-2s.9-2 2-2 2 .9 2 2-.9 2-2 2zm3.1-9H8.9V6c0-1.71 1.39-3.1 3.1-3.1 1.71 0 3.1 1.39 3.1 3.1v2z"/></symbol>
  <symbol viewBox="0 0 24 24" id="mdf-auto_fix_normal"><path d="m22 2-2.5 1.4L17 2l1.4 2.5L17 7l2.5-1.4L22 7l-1.4-2.5zm-7.63 5.29a.996.996 0 0 0-1.41 0L1.29 18.96a.996.996 0 0 0 0 1.41l2.34 2.34c.39.39 1.02.39 1.41 0L16.7 11.05a.996.996 0 0 0 0-1.41l-2.33-2.35zm-1.03 5.49-2.12-2.12 2.44-2.44 2.12 2.12-2.44 2.44z"/></symbol>
  <symbol viewBox="0 0 24 24" id="mdf-location_on"><path d="M12 2C8.13 2 5 5.13 5 9c0 5.25 7 13 7 13s7-7.75 7-13c0-3.87-3.13-7-7-7zm0 9.5a2.5 2.5 0 0 1 0-5 2.5 2.5 0 0 1 0 5z"/></symbol>
  <symbol viewBox="0 0 24 24" id="mdf-mic_off"><path d="M19 11h-1.7c0 .74-.16 1.43-.43 2.05l1.23 1.23c.56-.98.9-2.09.9-3.28zm-4.02.17c0-.06.02-.11.02-.17V5c0-1.66-1.34-3-3-3S9 3.34 9 5v.18l5.98 5.99zM4.27 3 3 4.27l6.01 6.01V11c0 1.66 1.33 3 2.99 3 .22 0 .44-.03.65-.08l1.66 1.66c-.71.33-1.5.52-2.31.52-2.76 0-5.3-2.1-5.3-5.1H5c0 3.41 2.72 6.23 6 6.72V21h2v-3.28c.91-.13 1.77-.45 2.54-.9L19.73 21 21 19.73 4.27 3z"/></symbol>
  <symbol viewBox="0 0 24 24" id="mdf-remove_circle"><path d="M12 2C6.48 2 2 6.48 2 12s4.48 10 10 10 10-4.48 10-10S17.52 2 12 2zm5 11H7v-2h10v2z"/></symbol>
  <symbol viewBox="0 0 24 24" id="mdf-remove"><path d="M19 13H5v-2h14v2z"/></symbol>
  <symbol viewBox="0 0 24 24" id="mdf-phone_iphone"><path d="M15.5 1h-8A2.5 2.5 0 0 0 5 3.5v17A2.5 2.5 0 0 0 7.5 23h8a2.5 2.5 0 0 0 2.5-2.5v-17A2.5 2.5 0 0 0 15.5 1zm-4 21c-.83 0-1.5-.67-1.5-1.5s.67-1.5 1.5-1.5 1.5.67 1.5 1.5-.67 1.5-1.5 1.5zm4.5-4H7V4h9v14z"/></symbol>
  <symbol viewBox="0 0 24 24" id="mdf-format_quote"><path d="M6 17h3l2-4V7H5v6h3zm8 0h3l2-4V7h-6v6h3z"/></symbol>
  <symbol viewBox="0 0 24 24" id="mdf-emoji_events"><path d="M19 5h-2V3H7v2H5c-1.1 0-2 .9-2 2v1c0 2.55 1.92 4.63 4.39 4.94A5.01 5.01 0 0 0 11 15.9V19H7v2h10v-2h-4v-3.1a5.01 5.01 0 0 0 3.61-2.96C19.08 12.63 21 10.55 21 8V7c0-1.1-.9-2-2-2zM5 8V7h2v3.82C5.84 10.4 5 9.3 5 8zm14 0c0 1.3-.84 2.4-2 2.82V7h2v1z"/></symbol>
  <symbol viewBox="0 0 24 24" id="mdf-group"><path d="M16 11c1.66 0 2.99-1.34 2.99-3S17.66 5 16 5c-1.66 0-3 1.34-3 3s1.34 3 3 3zm-8 0c1.66 0 2.99-1.34 2.99-3S9.66 5 8 5C6.34 5 5 6.34 5 8s1.34 3 3 3zm0 2c-2.33 0-7 1.17-7 3.5V19h14v-2.5c0-2.33-4.67-3.5-7-3.5zm8 0c-.29 0-.62.02-.97.05 1.16.84 1.97 1.97 1.97 3.45V19h6v-2.5c0-2.33-4.67-3.5-7-3.5z"/></symbol>
  <symbol viewBox="0 0 24 24" id="mdf-groups"><path d="M12 12.75c1.63 0 3.07.39 4.24.9 1.08.48 1.76 1.56 1.76 2.73V18H6v-1.61c0-1.18.68-2.26 1.76-2.73 1.17-.52 2.61-.91 4.24-.91zM4 13c1.1 0 2-.9 2-2s-.9-2-2-2-2 .9-2 2 .9 2 2 2zm1.13 1.1c-.37-.06-.74-.1-1.13-.1-.99 0-1.93.21-2.78.58A2.01 2.01 0 0 0 0 16.43V18h4.5v-1.61c0-.83.23-1.61.63-2.29zM20 13c1.1 0 2-.9 2-2s-.9-2-2-2-2 .9-2 2 .9 2 2 2zm4 3.43c0-.81-.48-1.53-1.22-1.85A6.95 6.95 0 0 0 20 14c-.39 0-.76.04-1.13.1.4.68.63 1.46.63 2.29V18H24v-1.57zM12 6c1.66 0 3 1.34 3 3s-1.34 3-3 3-3-1.34-3-3 1.34-3 3-3z"/></symbol>
  <symbol viewBox="0 0 24 24" id="mdf-person_add"><path d="M15 12c2.21 0 4-1.79 4-4s-1.79-4-4-4-4 1.79-4 4 1.79 4 4 4zm-9-2V7H4v3H1v2h3v3h2v-3h3v-2H6zm9 4c-2.67 0-8 1.34-8 4v2h16v-2c0-2.66-5.33-4-8-4z"/></symbol>
  <symbol viewBox="0 0 24 24" id="mdf-logout"><path d="m17 7-1.41 1.41L18.17 11H8v2h10.17l-2.58 2.58L17 17l5-5zM4 5h8V3H4c-1.1 0-2 .9-2 2v14c0 1.1.9 2 2 2h8v-2H4V5z"/></symbol>
  <symbol viewBox="0 0 24 24" id="mdf-reply"><path d="M10 9V5l-7 7 7 7v-4.1c5 0 8.5 1.6 11 5.1-1-5-4-10-11-11z"/></symbol>
  <symbol viewBox="0 0 24 24" id="mdf-add"><path d="M19 13h-6v6h-2v-6H5v-2h6V5h2v6h6v2z"/></symbol>
  <symbol viewBox="0 0 24 24" id="mdf-brush"><path d="M7 14c-1.66 0-3 1.34-3 3 0 1.31-1.16 2-2 2 .92 1.22 2.49 2 4 2 2.21 0 4-1.79 4-4 0-1.66-1.34-3-3-3zm13.71-9.37-1.34-1.34a.996.996 0 0 0-1.41 0L9 12.25 11.75 15l8.96-8.96a.996.996 0 0 0 0-1.41z"/></symbol>
  <symbol viewBox="0 0 24 24" id="mdf-send"><path d="M2.01 21 23 12 2.01 3 2 10l15 2-15 2z"/></symbol>
  <symbol viewBox="0 0 24 24" id="mdf-pause"><path d="M6 19h4V5H6v14zm8-14v14h4V5h-4z"/></symbol>
  <symbol viewBox="0 0 24 24" id="mdf-play_arrow"><path d="M8 5v14l11-7z"/></symbol>
  <symbol viewBox="0 0 24 24" id="mdf-power"><path d="M16.01 7 16 3h-2v4h-4V3H8v4h-.01C7 6.99 6 7.99 6 8.99v5.49L9.5 18v3h5v-3l3.5-3.51v-5.5c0-1-1-2-1.99-1.99z"/></symbol>
  <symbol viewBox="0 0 24 24" id="mdf-add_circle"><path d="M12 2C6.48 2 2 6.48 2 12s4.48 10 10 10 10-4.48 10-10S17.52 2 12 2zm5 11h-4v4h-2v-4H7v-2h4V7h2v4h4v2z"/></symbol>
  <symbol viewBox="0 0 24 24" id="mdf-add_box"><path d="M19 3H5a2 2 0 0 0-2 2v14a2 2 0 0 0 2 2h14c1.1 0 2-.9 2-2V5c0-1.1-.9-2-2-2zm-2 10h-4v4h-2v-4H7v-2h4V7h2v4h4v2z"/></symbol>
  <symbol viewBox="0 0 24 24" id="mdf-power_settings_new"><path d="M13 3h-2v10h2V3zm4.83 2.17-1.42 1.42A6.92 6.92 0 0 1 19 12c0 3.87-3.13 7-7 7A6.995 6.995 0 0 1 7.58 6.58L6.17 5.17A8.932 8.932 0 0 0 3 12a9 9 0 0 0 18 0c0-2.74-1.23-5.18-3.17-6.83z"/></symbol>
  <symbol viewBox="0 0 24 24" id="mdf-extension"><path d="M20.5 11H19V7c0-1.1-.9-2-2-2h-4V3.5a2.5 2.5 0 0 0-5 0V5H4c-1.1 0-1.99.9-1.99 2v3.8H3.5c1.49 0 2.7 1.21 2.7 2.7s-1.21 2.7-2.7 2.7H2V20c0 1.1.9 2 2 2h3.8v-1.5c0-1.49 1.21-2.7 2.7-2.7 1.49 0 2.7 1.21 2.7 2.7V22H17c1.1 0 2-.9 2-2v-4h1.5a2.5 2.5 0 0 0 0-5z"/></symbol>
  <symbol viewBox="0 0 24 24" id="mdf-help_outline"><path d="M11 18h2v-2h-2v2zm1-16C6.48 2 2 6.48 2 12s4.48 10 10 10 10-4.48 10-10S17.52 2 12 2zm0 18c-4.41 0-8-3.59-8-8s3.59-8 8-8 8 3.59 8 8-3.59 8-8 8zm0-14c-2.21 0-4 1.79-4 4h2c0-1.1.9-2 2-2s2 .9 2 2c0 2-3 1.75-3 5h2c0-2.25 3-2.5 3-5 0-2.21-1.79-4-4-4z"/></symbol>
  <symbol viewBox="0 0 24 24" id="mdf-question_mark"><path d="M11.07 12.85c.77-1.39 2.25-2.21 3.11-3.44.91-1.29.4-3.7-2.18-3.7-1.69 0-2.52 1.28-2.87 2.34L6.54 6.96C7.25 4.83 9.18 3 11.99 3c2.35 0 3.96 1.07 4.78 2.41.7 1.15 1.11 3.3.03 4.9-1.2 1.77-2.35 2.31-2.97 3.45-.25.46-.35.76-.35 2.24h-2.89c-.01-.78-.13-2.05.48-3.15zM14 20c0 1.1-.9 2-2 2s-2-.9-2-2 .9-2 2-2 2 .9 2 2z"/></symbol>
  <symbol viewBox="0 0 24 24" id="mdf-shuffle"><path d="M10.59 9.17 5.41 4 4 5.41l5.17 5.17 1.42-1.41zM14.5 4l2.04 2.04L4 18.59 5.41 20 17.96 7.46 20 9.5V4h-5.5zm.33 9.41-1.41 1.41 3.13 3.13L14.5 20H20v-5.5l-2.04 2.04-3.13-3.13z"/></symbol>
  <symbol viewBox="0 0 24 24" id="mdf-redo"><path d="M18.4 10.6C16.55 8.99 14.15 8 11.5 8c-4.65 0-8.58 3.03-9.96 7.22L3.9 16a8.002 8.002 0 0 1 7.6-5.5c1.95 0 3.73.72 5.12 1.88L13 16h9V7l-3.6 3.6z"/></symbol>
  <symbol viewBox="0 0 24 24" id="mdf-rocket_launch"><path d="M9.19 6.35c-2.04 2.29-3.44 5.58-3.57 5.89L2 10.69l4.05-4.05c.47-.47 1.15-.68 1.81-.55l1.33.26zM11.17 17s3.74-1.55 5.89-3.7c5.4-5.4 4.5-9.62 4.21-10.57-.95-.3-5.17-1.19-10.57 4.21C8.55 9.09 7 12.83 7 12.83L11.17 17zm6.48-2.19c-2.29 2.04-5.58 3.44-5.89 3.57L13.31 22l4.05-4.05c.47-.47.68-1.15.55-1.81l-.26-1.33zM9 18c0 .83-.34 1.58-.88 2.12C6.94 21.3 2 22 2 22s.7-4.94 1.88-6.12A2.996 2.996 0 0 1 9 18zm4-9c0-1.1.9-2 2-2s2 .9 2 2-.9 2-2 2-2-.9-2-2z"/></symbol>
  <symbol viewBox="0 0 24 24" id="mdf-save"><path d="M17 3H5a2 2 0 0 0-2 2v14a2 2 0 0 0 2 2h14c1.1 0 2-.9 2-2V7l-4-4zm-5 16c-1.66 0-3-1.34-3-3s1.34-3 3-3 3 1.34 3 3-1.34 3-3 3zm3-10H5V5h10v4z"/></symbol>
  <symbol viewBox="0 0 24 24" id="mdf-search"><path d="M15.5 14h-.79l-.28-.27A6.471 6.471 0 0 0 16 9.5 6.5 6.5 0 1 0 9.5 16c1.61 0 3.09-.59 4.23-1.57l.27.28v.79l5 4.99L20.49 19l-4.99-5zm-6 0C7.01 14 5 11.99 5 9.5S7.01 5 9.5 5 14 7.01 14 9.5 11.99 14 9.5 14z"/></symbol>
  <symbol viewBox="0 0 24 24" id="mdf-share"><path d="M18 16.08c-.76 0-1.44.3-1.96.77L8.91 12.7c.05-.23.09-.46.09-.7s-.04-.47-.09-.7l7.05-4.11c.54.5 1.25.81 2.04.81 1.66 0 3-1.34 3-3s-1.34-3-3-3-3 1.34-3 3c0 .24.04.47.09.7L8.04 9.81C7.5 9.31 6.79 9 6 9c-1.66 0-3 1.34-3 3s1.34 3 3 3c.79 0 1.5-.31 2.04-.81l7.12 4.16c-.05.21-.08.43-.08.65 0 1.61 1.31 2.92 2.92 2.92 1.61 0 2.92-1.31 2.92-2.92s-1.31-2.92-2.92-2.92z"/></symbol>
  <symbol viewBox="0 0 24 24" id="mdf-security"><path d="M12 1 3 5v6c0 5.55 3.84 10.74 9 12 5.16-1.26 9-6.45 9-12V5l-9-4zm0 10.99h7c-.53 4.12-3.28 7.79-7 8.94V12H5V6.3l7-3.11v8.8z"/></symbol>
  <symbol viewBox="0 0 24 24" id="mdf-shield"><path d="M12 1 3 5v6c0 5.55 3.84 10.74 9 12 5.16-1.26 9-6.45 9-12V5l-9-4z"/></symbol>
  <symbol viewBox="0 0 24 24" id="mdf-login"><path d="M11 7 9.6 8.4l2.6 2.6H2v2h10.2l-2.6 2.6L11 17l5-5-5-5zm9 12h-8v2h8c1.1 0 2-.9 2-2V5c0-1.1-.9-2-2-2h-8v2h8v14z"/></symbol>
  <symbol viewBox="0 0 24 24" id="mdf-signal_cellular_alt"><path d="M17 4h3v16h-3zM5 14h3v6H5zm6-5h3v11h-3z"/></symbol>
  <symbol viewBox="0 0 24 24" id="mdf-tune"><path d="M3 17v2h6v-2H3zM3 5v2h10V5H3zm10 16v-2h8v-2h-8v-2h-2v6h2zM7 9v2H3v2h4v2h2V9H7zm14 4v-2H11v2h10zm-6-4h2V7h4V5h-4V3h-2v6z"/></symbol>
  <symbol viewBox="0 0 24 24" id="mdf-mood"><path d="M11.99 2C6.47 2 2 6.48 2 12s4.47 10 9.99 10C17.52 22 22 17.52 22 12S17.52 2 11.99 2zM12 20c-4.42 0-8-3.58-8-8s3.58-8 8-8 8 3.58 8 8-3.58 8-8 8zm3.5-9c.83 0 1.5-.67 1.5-1.5S16.33 8 15.5 8 14 8.67 14 9.5s.67 1.5 1.5 1.5zm-7 0c.83 0 1.5-.67 1.5-1.5S9.33 8 8.5 8 7 8.67 7 9.5 7.67 11 8.5 11zm3.5 6.5c2.33 0 4.31-1.46 5.11-3.5H6.89c.8 2.04 2.78 3.5 5.11 3.5z"/></symbol>
  <symbol viewBox="0 0 24 24" id="mdf-sort"><path d="M3 18h6v-2H3v2zM3 6v2h18V6H3zm0 7h12v-2H3v2z"/></symbol>
  <symbol viewBox="0 0 24 24" id="mdf-pending"><path d="M12 2C6.48 2 2 6.48 2 12s4.48 10 10 10 10-4.48 10-10S17.52 2 12 2zM7 13.5c-.83 0-1.5-.67-1.5-1.5s.67-1.5 1.5-1.5 1.5.67 1.5 1.5-.67 1.5-1.5 1.5zm5 0c-.83 0-1.5-.67-1.5-1.5s.67-1.5 1.5-1.5 1.5.67 1.5 1.5-.67 1.5-1.5 1.5zm5 0c-.83 0-1.5-.67-1.5-1.5s.67-1.5 1.5-1.5 1.5.67 1.5 1.5-.67 1.5-1.5 1.5z"/></symbol>
  <symbol viewBox="0 0 24 24" id="mdf-approval"><path d="M4 16v6h16v-6c0-1.1-.9-2-2-2H6c-1.1 0-2 .9-2 2zm14 2H6v-2h12v2zM12 2C9.24 2 7 4.24 7 7l5 7 5-7c0-2.76-2.24-5-5-5zm0 9L9 7c0-1.66 1.34-3 3-3s3 1.34 3 3l-3 4z"/></symbol>
  <symbol viewBox="0 0 24 24" id="mdf-star"><path d="M12 17.27 18.18 21l-1.64-7.03L22 9.24l-7.19-.61L12 2 9.19 8.63 2 9.24l5.46 4.73L5.82 21z"/></symbol>
  <symbol viewBox="0 0 24 24" id="mdf-skip_previous"><path d="M6 6h2v12H6zm3.5 6 8.5 6V6z"/></symbol>
  <symbol viewBox="0 0 24 24" id="mdf-skip_next"><path d="m6 18 8.5-6L6 6v12zM16 6v12h2V6h-2z"/></symbol>
  <symbol viewBox="0 0 24 24" id="mdf-clear_all"><path d="M5 13h14v-2H5v2zm-2 4h14v-2H3v2zM7 7v2h14V7H7z"/></symbol>
  <symbol viewBox="0 0 24 24" id="mdf-sync"><path d="M12 4V1L8 5l4 4V6c3.31 0 6 2.69 6 6 0 1.01-.25 1.97-.7 2.8l1.46 1.46A7.93 7.93 0 0 0 20 12c0-4.42-3.58-8-8-8zm0 14c-3.31 0-6-2.69-6-6 0-1.01.25-1.97.7-2.8L5.24 7.74A7.93 7.93 0 0 0 4 12c0 4.42 3.58 8 8 8v3l4-4-4-4v3z"/></symbol>
  <symbol viewBox="0 0 24 24" id="mdf-table_chart"><path d="M10 10.02h5V21h-5zM17 21h3c1.1 0 2-.9 2-2v-9h-5v11zm3-18H5c-1.1 0-2 .9-2 2v3h19V5c0-1.1-.9-2-2-2zM3 19c0 1.1.9 2 2 2h3V10H3v9z"/></symbol>
  <symbol viewBox="0 0 24 24" id="mdf-sell"><path d="m21.41 11.41-8.83-8.83c-.37-.37-.88-.58-1.41-.58H4c-1.1 0-2 .9-2 2v7.17c0 .53.21 1.04.59 1.41l8.83 8.83c.78.78 2.05.78 2.83 0l7.17-7.17c.78-.78.78-2.04-.01-2.83zM6.5 8C5.67 8 5 7.33 5 6.5S5.67 5 6.5 5 8 5.67 8 6.5 7.33 8 6.5 8z"/></symbol>
  <symbol viewBox="0 0 24 24" id="mdf-checklist"><path d="M22 7h-9v2h9V7zm0 8h-9v2h9v-2zM5.54 11 2 7.46l1.41-1.41 2.12 2.12 4.24-4.24 1.41 1.41L5.54 11zm0 8L2 15.46l1.41-1.41 2.12 2.12 4.24-4.24 1.41 1.41L5.54 19z"/></symbol>
  <symbol viewBox="0 0 24 24" id="mdf-device_thermostat"><path d="M15 13V5c0-1.66-1.34-3-3-3S9 3.34 9 5v8c-1.21.91-2 2.37-2 4 0 2.76 2.24 5 5 5s5-2.24 5-5c0-1.63-.79-3.09-2-4zm-4-8c0-.55.45-1 1-1s1 .45 1 1h-1v1h1v2h-1v1h1v2h-2V5z"/></symbol>
  <symbol viewBox="0 0 24 24" id="mdf-push_pin"><path fill-rule="evenodd" d="M16 9V4h1c.55 0 1-.45 1-1s-.45-1-1-1H7c-.55 0-1 .45-1 1s.45 1 1 1h1v5c0 1.66-1.34 3-3 3v2h5.97v7l1 1 1-1v-7H19v-2c-1.66 0-3-1.34-3-3z"/></symbol>
  <symbol viewBox="0 0 24 24" id="mdf-highlight_off"><path d="M14.59 8 12 10.59 9.41 8 8 9.41 10.59 12 8 14.59 9.41 16 12 13.41 14.59 16 16 14.59 13.41 12 16 9.41 14.59 8zM12 2C6.47 2 2 6.47 2 12s4.47 10 10 10 10-4.47 10-10S17.53 2 12 2zm0 18c-4.41 0-8-3.59-8-8s3.59-8 8-8 8 3.59 8 8-3.59 8-8 8z"/></symbol>
  <symbol viewBox="0 0 24 24" id="mdf-close"><path d="M19 6.41 17.59 5 12 10.59 6.41 5 5 6.41 10.59 12 5 17.59 6.41 19 12 13.41 17.59 19 19 17.59 13.41 12z"/></symbol>
  <symbol viewBox="0 0 24 24" id="mdf-toggle_off"><path d="M17 7H7c-2.76 0-5 2.24-5 5s2.24 5 5 5h10c2.76 0 5-2.24 5-5s-2.24-5-5-5zM7 15c-1.66 0-3-1.34-3-3s1.34-3 3-3 3 1.34 3 3-1.34 3-3 3z"/></symbol>
  <symbol viewBox="0 0 24 24" id="mdf-toggle_on"><path d="M17 7H7c-2.76 0-5 2.24-5 5s2.24 5 5 5h10c2.76 0 5-2.24 5-5s-2.24-5-5-5zm0 8c-1.66 0-3-1.34-3-3s1.34-3 3-3 3 1.34 3 3-1.34 3-3 3z"/></symbol>
  <symbol viewBox="0 0 24 24" id="mdf-undo"><path d="M12.5 8c-2.65 0-5.05.99-6.9 2.6L2 7v9h9l-3.62-3.62c1.39-1.16 3.16-1.88 5.12-1.88 3.54 0 6.55 2.31 7.6 5.5l2.37-.78C21.08 11.03 17.15 8 12.5 8z"/></symbol>
  <symbol viewBox="0 0 24 24" id="mdf-link_off"><path d="M17 7h-4v1.9h4c1.71 0 3.1 1.39 3.1 3.1 0 1.43-.98 2.63-2.31 2.98l1.46 1.46C20.88 15.61 22 13.95 22 12c0-2.76-2.24-5-5-5zm-1 4h-2.19l2 2H16zM2 4.27l3.11 3.11A4.991 4.991 0 0 0 2 12c0 2.76 2.24 5 5 5h4v-1.9H7c-1.71 0-3.1-1.39-3.1-3.1 0-1.59 1.21-2.9 2.76-3.07L8.73 11H8v2h2.73L13 15.27V17h1.73l4.01 4L20 19.74 3.27 3 2 4.27z"/></symbol>
  <symbol viewBox="0 0 24 24" id="mdf-lock_open"><path d="M12 17c1.1 0 2-.9 2-2s-.9-2-2-2-2 .9-2 2 .9 2 2 2zm6-9h-1V6c0-2.76-2.24-5-5-5S7 3.24 7 6h1.9c0-1.71 1.39-3.1 3.1-3.1 1.71 0 3.1 1.39 3.1 3.1v2H6c-1.1 0-2 .9-2 2v10c0 1.1.9 2 2 2h12c1.1 0 2-.9 2-2V10c0-1.1-.9-2-2-2zm0 12H6V10h12v10z"/></symbol>
  <symbol viewBox="0 0 24 24" id="mdf-file_upload"><path d="M9 16h6v-6h4l-7-7-7 7h4zm-4 2h14v2H5z"/></symbol>
  <symbol viewBox="0 0 24 24" id="mdf-manage_accounts"><circle cx="10" cy="8" r="4"/><path d="M10.67 13.02c-.22-.01-.44-.02-.67-.02-2.42 0-4.68.67-6.61 1.82-.88.52-1.39 1.5-1.39 2.53V20h9.26a6.963 6.963 0 0 1-.59-6.98zM20.75 16c0-.22-.03-.42-.06-.63l1.14-1.01-1-1.73-1.45.49c-.32-.27-.68-.48-1.08-.63L18 11h-2l-.3 1.49c-.4.15-.76.36-1.08.63l-1.45-.49-1 1.73 1.14 1.01c-.03.21-.06.41-.06.63s.03.42.06.63l-1.14 1.01 1 1.73 1.45-.49c.32.27.68.48 1.08.63L16 21h2l.3-1.49c.4-.15.76-.36 1.08-.63l1.45.49 1-1.73-1.14-1.01c.03-.21.06-.41.06-.63zM17 18c-1.1 0-2-.9-2-2s.9-2 2-2 2 .9 2 2-.9 2-2 2z"/></symbol>
  <symbol viewBox="0 0 24 24" id="mdf-people"><path d="M16 11c1.66 0 2.99-1.34 2.99-3S17.66 5 16 5c-1.66 0-3 1.34-3 3s1.34 3 3 3zm-8 0c1.66 0 2.99-1.34 2.99-3S9.66 5 8 5C6.34 5 5 6.34 5 8s1.34 3 3 3zm0 2c-2.33 0-7 1.17-7 3.5V19h14v-2.5c0-2.33-4.67-3.5-7-3.5zm8 0c-.29 0-.62.02-.97.05 1.16.84 1.97 1.97 1.97 3.45V19h6v-2.5c0-2.33-4.67-3.5-7-3.5z"/></symbol>
  <symbol viewBox="0 0 24 24" id="mdf-person_off"><path d="M8.65 5.82a3.999 3.999 0 1 1 5.53 5.53L8.65 5.82zM20 17.17c-.02-1.1-.63-2.11-1.61-2.62-.54-.28-1.13-.54-1.77-.76L20 17.17zm1.19 4.02L2.81 2.81 1.39 4.22l8.89 8.89c-1.81.23-3.39.79-4.67 1.45A2.97 2.97 0 0 0 4 17.22V20h13.17l2.61 2.61 1.41-1.42z"/></symbol>
  <symbol viewBox="0 0 24 24" id="mdf-admin_panel_settings"><path d="M17 11c.34 0 .67.04 1 .09V6.27L10.5 3 3 6.27v4.91c0 4.54 3.2 8.79 7.5 9.82.55-.13 1.08-.32 1.6-.55-.69-.98-1.1-2.17-1.1-3.45 0-3.31 2.69-6 6-6z"/><path d="M17 13c-2.21 0-4 1.79-4 4s1.79 4 4 4 4-1.79 4-4-1.79-4-4-4zm0 1.38c.62 0 1.12.51 1.12 1.12s-.51 1.12-1.12 1.12-1.12-.51-1.12-1.12.5-1.12 1.12-1.12zm0 5.37c-.93 0-1.74-.46-2.24-1.17.05-.72 1.51-1.08 2.24-1.08s2.19.36 2.24 1.08c-.5.71-1.31 1.17-2.24 1.17z"/></symbol>
  <symbol viewBox="0 0 24 24" id="mdf-person_remove"><path d="M14 8c0-2.21-1.79-4-4-4S6 5.79 6 8s1.79 4 4 4 4-1.79 4-4zm3 2v2h6v-2h-6zM2 18v2h16v-2c0-2.66-5.33-4-8-4s-8 1.34-8 4z"/></symbol>
  <symbol viewBox="0 0 24 24" id="mdf-person"><path d="M12 12c2.21 0 4-1.79 4-4s-1.79-4-4-4-4 1.79-4 4 1.79 4 4 4zm0 2c-2.67 0-8 1.34-8 4v2h16v-2c0-2.66-5.33-4-8-4z"/></symbol>
  <symbol viewBox="0 0 24 24" id="mdf-build"><path d="m22.7 19-9.1-9.1c.9-2.3.4-5-1.5-6.9-2-2-5-2.4-7.4-1.3L9 6 6 9 1.6 4.7C.4 7.1.9 10.1 2.9 12.1c1.9 1.9 4.6 2.4 6.9 1.5l9.1 9.1c.4.4 1 .4 1.4 0l2.3-2.3c.5-.4.5-1.1.1-1.4z"/></symbol>
</svg>
