<?xml version="1.0" encoding="UTF-8"?>
<svg xmlns="http://www.w3.org/2000/svg" style="display: none;">
  <symbol viewBox="0 0 24 24" id="mdf-contacts"><path d="M20 0H4v2h16V0zM4 24h16v-2H4v2zM20 4H4c-1.1 0-2 .9-2 2v12c0 1.1.9 2 2 2h16c1.1 0 2-.9 2-2V6c0-1.1-.9-2-2-2zm-8 2.75c1.24 0 2.25 1.01 2.25 2.25s-1.01 2.25-2.25 2.25S9.75 10.24 9.75 9 10.76 6.75 12 6.75zM17 17H7v-1.5c0-1.67 3.33-2.5 5-2.5s5 .83 5 2.5V17z"/></symbol>
  <symbol viewBox="0 0 24 24" id="mdf-badge"><path d="M20 7h-5V4c0-1.1-.9-2-2-2h-2c-1.1 0-2 .9-2 2v3H4c-1.1 0-2 .9-2 2v11c0 1.1.9 2 2 2h16c1.1 0 2-.9 2-2V9c0-1.1-.9-2-2-2zM9 12c.83 0 1.5.67 1.5 1.5S9.83 15 9 15s-1.5-.67-1.5-1.5S8.17 12 9 12zm3 6H6v-.75c0-1 2-1.5 3-1.5s3 .5 3 1.5V18zm1-9h-2V4h2v5zm5 7.5h-4V15h4v1.5zm0-3h-4V12h4v1.5z"/></symbol>
  <symbol viewBox="0 0 24 24" id="mdf-format_align_left"><path d="M15 15H3v2h12v-2zm0-8H3v2h12V7zM3 13h18v-2H3v2zm0 8h18v-2H3v2zM3 3v2h18V3H3z"/></symbol>
  <symbol viewBox="0 0 24 24" id="mdf-anchor"><path d="m17 15 1.55 1.55c-.96 1.69-3.33 3.04-5.55 3.37V11h3V9h-3V7.82C14.16 7.4 15 6.3 15 5c0-1.65-1.35-3-3-3S9 3.35 9 5c0 1.3.84 2.4 2 2.82V9H8v2h3v8.92c-2.22-.33-4.59-1.68-5.55-3.37L7 15l-4-3v3c0 3.88 4.92 7 9 7s9-3.12 9-7v-3l-4 3zM12 4c.55 0 1 .45 1 1s-.45 1-1 1-1-.45-1-1 .45-1 1-1z"/></symbol>
  <symbol viewBox="0 0 24 24" id="mdf-keyboard_double_arrow_down"><path d="M18 6.41 16.59 5 12 9.58 7.41 5 6 6.41l6 6z"/><path d="m18 13-1.41-1.41L12 16.17l-4.59-4.58L6 13l6 6z"/></symbol>
  <symbol viewBox="0 0 24 24" id="mdf-keyboard_double_arrow_left"><path d="M17.59 18 19 16.59 14.42 12 19 7.41 17.59 6l-6 6z"/><path d="m11 18 1.41-1.41L7.83 12l4.58-4.59L11 6l-6 6z"/></symbol>
  <symbol viewBox="0 0 24 24" id="mdf-keyboard_double_arrow_right"><path d="M6.41 6 5 7.41 9.58 12 5 16.59 6.41 18l6-6z"/><path d="m13 6-1.41 1.41L16.17 12l-4.58 4.59L13 18l6-6z"/></symbol>
  <symbol viewBox="0 0 24 24" id="mdf-keyboard_double_arrow_up"><path d="M6 17.59 7.41 19 12 14.42 16.59 19 18 17.59l-6-6z"/><path d="m6 11 1.41 1.41L12 7.83l4.59 4.58L18 11l-6-6z"/></symbol>
  <symbol viewBox="0 0 24 24" id="mdf-archive"><path d="m20.54 5.23-1.39-1.68C18.88 3.21 18.47 3 18 3H6c-.47 0-.88.21-1.16.55L3.46 5.23C3.17 5.57 3 6.02 3 6.5V19c0 1.1.9 2 2 2h14c1.1 0 2-.9 2-2V6.5c0-.48-.17-.93-.46-1.27zM12 17.5 6.5 12H10v-2h4v2h3.5L12 17.5zM5.12 5l.81-1h12l.94 1H5.12z"/></symbol>
  <symbol viewBox="0 0 24 24" id="mdf-support"><path d="M12 2C6.48 2 2 6.48 2 12s4.48 10 10 10 10-4.48 10-10S17.52 2 12 2zm7.46 7.12-2.78 1.15a4.982 4.982 0 0 0-2.95-2.94l1.15-2.78c2.1.8 3.77 2.47 4.58 4.57zM12 15c-1.66 0-3-1.34-3-3s1.34-3 3-3 3 1.34 3 3-1.34 3-3 3zM9.13 4.54l1.17 2.78a5 5 0 0 0-2.98 2.97L4.54 9.13a7.984 7.984 0 0 1 4.59-4.59zM4.54 14.87l2.78-1.15a4.968 4.968 0 0 0 2.97 2.96l-1.17 2.78a7.996 7.996 0 0 1-4.58-4.59zm10.34 4.59-1.15-2.78a4.978 4.978 0 0 0 2.95-2.97l2.78 1.17a8.007 8.007 0 0 1-4.58 4.58z"/></symbol>
  <symbol viewBox="0 0 24 24" id="mdf-keyboard_arrow_down"><path d="M7.41 8.59 12 13.17l4.59-4.58L18 10l-6 6-6-6 1.41-1.41z"/></symbol>
  <symbol viewBox="0 0 24 24" id="mdf-keyboard_arrow_right"><path d="M8.59 16.59 13.17 12 8.59 7.41 10 6l6 6-6 6-1.41-1.41z"/></symbol>
  <symbol viewBox="0 0 24 24" id="mdf-keyboard_arrow_up"><path d="M7.41 15.41 12 10.83l4.59 4.58L18 14l-6-6-6 6z"/></symbol>
  <symbol viewBox="0 0 24 24" id="mdf-arrow_downward"><path d="m20 12-1.41-1.41L13 16.17V4h-2v12.17l-5.58-5.59L4 12l8 8 8-8z"/></symbol>
  <symbol viewBox="0 0 24 24" id="mdf-arrow_forward"><path d="m12 4-1.41 1.41L16.17 11H4v2h12.17l-5.58 5.59L12 20l8-8z"/></symbol>
  <symbol viewBox="0 0 24 24" id="mdf-arrow_back"><path d="M20 11H7.83l5.59-5.59L12 4l-8 8 8 8 1.41-1.41L7.83 13H20v-2z"/></symbol>
  <symbol viewBox="0 0 24 24" id="mdf-arrow_upward"><path d="m4 12 1.41 1.41L11 7.83V20h2V7.83l5.58 5.59L20 12l-8-8-8 8z"/></symbol>
  <symbol viewBox="0 0 24 24" id="mdf-emergency"><path d="m20.79 9.23-2-3.46L14 8.54V3h-4v5.54L5.21 5.77l-2 3.46L8 12l-4.79 2.77 2 3.46L10 15.46V21h4v-5.54l4.79 2.77 2-3.46L16 12z"/></symbol>
  <symbol viewBox="0 0 24 24" id="mdf-alternate_email"><path d="M12 2C6.48 2 2 6.48 2 12s4.48 10 10 10h5v-2h-5c-4.34 0-8-3.66-8-8s3.66-8 8-8 8 3.66 8 8v1.43c0 .79-.71 1.57-1.5 1.57s-1.5-.78-1.5-1.57V12c0-2.76-2.24-5-5-5s-5 2.24-5 5 2.24 5 5 5c1.38 0 2.64-.56 3.54-1.47.65.89 1.77 1.47 2.96 1.47 1.97 0 3.5-1.6 3.5-3.57V12c0-5.52-4.48-10-10-10zm0 13c-1.66 0-3-1.34-3-3s1.34-3 3-3 3 1.34 3 3-1.34 3-3 3z"/></symbol>
  <symbol viewBox="0 0 24 24" id="mdf-fast_rewind"><path d="M11 18V6l-8.5 6 8.5 6zm.5-6 8.5 6V6l-8.5 6z"/></symbol>
  <symbol viewBox="0 0 24 24" id="mdf-block"><path d="M12 2C6.48 2 2 6.48 2 12s4.48 10 10 10 10-4.48 10-10S17.52 2 12 2zM4 12c0-4.42 3.58-8 8-8 1.85 0 3.55.63 4.9 1.69L5.69 16.9A7.902 7.902 0 0 1 4 12zm8 8c-1.85 0-3.55-.63-4.9-1.69L18.31 7.1A7.902 7.902 0 0 1 20 12c0 4.42-3.58 8-8 8z"/></symbol>
  <symbol viewBox="0 0 24 24" id="mdf-menu"><path d="M3 18h18v-2H3v2zm0-5h18v-2H3v2zm0-7v2h18V6H3z"/></symbol>
  <symbol viewBox="0 0 24 24" id="mdf-notifications"><path d="M12 22c1.1 0 2-.9 2-2h-4a2 2 0 0 0 2 2zm6-6v-5c0-3.07-1.64-5.64-4.5-6.32V4c0-.83-.67-1.5-1.5-1.5s-1.5.67-1.5 1.5v.68C7.63 5.36 6 7.92 6 11v5l-2 2v1h16v-1l-2-2z"/></symbol>
  <symbol viewBox="0 0 24 24" id="mdf-notifications_off"><path d="M20 18.69 7.84 6.14 5.27 3.49 4 4.76l2.8 2.8v.01c-.52.99-.8 2.16-.8 3.42v5l-2 2v1h13.73l2 2L21 19.72l-1-1.03zM12 22c1.11 0 2-.89 2-2h-4c0 1.11.89 2 2 2zm6-7.32V11c0-3.08-1.64-5.64-4.5-6.32V4c0-.83-.67-1.5-1.5-1.5s-1.5.67-1.5 1.5v.68c-.15.03-.29.08-.42.12-.1.03-.2.07-.3.11h-.01c-.01 0-.01 0-.02.01-.23.09-.46.2-.68.31 0 0-.01 0-.01.01L18 14.68z"/></symbol>
  <symbol viewBox="0 0 24 24" id="mdf-cake"><path d="M12 6a2 2 0 0 0 2-2c0-.38-.1-.73-.29-1.03L12 0l-1.71 2.97c-.19.3-.29.65-.29 1.03 0 1.1.9 2 2 2zm4.6 9.99-1.07-1.07-1.08 1.07c-1.3 1.3-3.58 1.31-4.89 0l-1.07-1.07-1.09 1.07C6.75 16.64 5.88 17 4.96 17c-.73 0-1.4-.23-1.96-.61V21c0 .55.45 1 1 1h16c.55 0 1-.45 1-1v-4.61c-.56.38-1.23.61-1.96.61-.92 0-1.79-.36-2.44-1.01zM18 9h-5V7h-2v2H6c-1.66 0-3 1.34-3 3v1.54c0 1.08.88 1.96 1.96 1.96.52 0 1.02-.2 1.38-.57l2.14-2.13 2.13 2.13c.74.74 2.03.74 2.77 0l2.14-2.13 2.13 2.13c.37.37.86.57 1.38.57 1.08 0 1.96-.88 1.96-1.96V12C21 10.34 19.66 9 18 9z"/></symbol>
  <symbol viewBox="0 0 24 24" id="mdf-format_bold"><path d="M15.6 10.79c.97-.67 1.65-1.77 1.65-2.79 0-2.26-1.75-4-4-4H7v14h7.04c2.09 0 3.71-1.7 3.71-3.79 0-1.52-.86-2.82-2.15-3.42zM10 6.5h3c.83 0 1.5.67 1.5 1.5s-.67 1.5-1.5 1.5h-3v-3zm3.5 9H10v-3h3.5c.83 0 1.5.67 1.5 1.5s-.67 1.5-1.5 1.5z"/></symbol>
  <symbol viewBox="0 0 24 24" id="mdf-book"><path d="M18 2H6c-1.1 0-2 .9-2 2v16c0 1.1.9 2 2 2h12c1.1 0 2-.9 2-2V4c0-1.1-.9-2-2-2zM6 4h5v8l-2.5-1.5L6 12V4z"/></symbol>
  <symbol viewBox="0 0 24 24" id="mdf-local_library"><path d="M12 11.55C9.64 9.35 6.48 8 3 8v11c3.48 0 6.64 1.35 9 3.55 2.36-2.19 5.52-3.55 9-3.55V8c-3.48 0-6.64 1.35-9 3.55zM12 8c1.66 0 3-1.34 3-3s-1.34-3-3-3-3 1.34-3 3 1.34 3 3 3z"/></symbol>
  <symbol viewBox="0 0 24 24" id="mdf-bookmark"><path d="M17 3H7c-1.1 0-1.99.9-1.99 2L5 21l7-3 7 3V5c0-1.1-.9-2-2-2z"/></symbol>
  <symbol viewBox="0 0 24 24" id="mdf-business_center"><path d="M10 16v-1H3.01L3 19c0 1.11.89 2 2 2h14c1.11 0 2-.89 2-2v-4h-7v1h-4zm10-9h-4.01V5l-2-2h-4l-2 2v2H4c-1.1 0-2 .9-2 2v3c0 1.11.89 2 2 2h6v-2h4v2h6c1.1 0 2-.9 2-2V9c0-1.1-.9-2-2-2zm-6 0h-4V5h4v2z"/></symbol>
  <symbol viewBox="0 0 24 24" id="mdf-crisis_alert"><path d="M14.5 2.5c0 1.5-1.5 6-1.5 6h-2S9.5 4 9.5 2.5a2.5 2.5 0 0 1 5 0zM12 10c-1.1 0-2 .9-2 2s.9 2 2 2 2-.9 2-2-.9-2-2-2zm4.08-4.89c.18-.75.33-1.47.39-2.06A9.996 9.996 0 0 1 22 12c0 5.52-4.48 10-10 10S2 17.52 2 12c0-3.92 2.25-7.31 5.53-8.95.07.59.21 1.32.39 2.06A8.028 8.028 0 0 0 4 12c0 4.42 3.58 8 8 8s8-3.58 8-8c0-2.93-1.58-5.49-3.92-6.89zM18 12c0 3.31-2.69 6-6 6s-6-2.69-6-6c0-2 .98-3.77 2.48-4.86.23.81.65 2.07.65 2.07C8.43 9.93 8 10.92 8 12c0 2.21 1.79 4 4 4s4-1.79 4-4c0-1.08-.43-2.07-1.13-2.79 0 0 .41-1.22.65-2.07A5.998 5.998 0 0 1 18 12z"/></symbol>
  <symbol viewBox="0 0 24 24" id="mdf-calendar_month"><path d="M19 4h-1V2h-2v2H8V2H6v2H5c-1.11 0-1.99.9-1.99 2L3 20a2 2 0 0 0 2 2h14c1.1 0 2-.9 2-2V6c0-1.1-.9-2-2-2zm0 16H5V10h14v10zM9 14H7v-2h2v2zm4 0h-2v-2h2v2zm4 0h-2v-2h2v2zm-8 4H7v-2h2v2zm4 0h-2v-2h2v2zm4 0h-2v-2h2v2z"/></symbol>
  <symbol viewBox="0 0 24 24" id="mdf-arrow_drop_down"><path d="m7 10 5 5 5-5z"/></symbol>
  <symbol viewBox="0 0 24 24" id="mdf-arrow_left"><path d="m14 7-5 5 5 5V7z"/></symbol>
  <symbol viewBox="0 0 24 24" id="mdf-arrow_right"><path d="m10 17 5-5-5-5v10z"/></symbol>
  <symbol viewBox="0 0 24 24" id="mdf-arrow_drop_up"><path d="m7 14 5-5 5 5z"/></symbol>
  <symbol viewBox="0 0 24 24" id="mdf-check"><path d="M9 16.17 4.83 12l-1.42 1.41L9 19 21 7l-1.41-1.41z"/></symbol>
  <symbol viewBox="0 0 24 24" id="mdf-expand_circle_down"><path d="M12 2C6.48 2 2 6.48 2 12s4.48 10 10 10 10-4.48 10-10S17.52 2 12 2zm0 13.5L7.5 11l1.42-1.41L12 12.67l3.08-3.08L16.5 11 12 15.5z"/></symbol>
  <symbol viewBox="0 0 24 24" id="mdf-expand_more"><path d="M16.59 8.59 12 13.17 7.41 8.59 6 10l6 6 6-6z"/></symbol>
  <symbol viewBox="0 0 24 24" id="mdf-chevron_left"><path d="M15.41 7.41 14 6l-6 6 6 6 1.41-1.41L10.83 12z"/></symbol>
  <symbol viewBox="0 0 24 24" id="mdf-chevron_right"><path d="M10 6 8.59 7.41 13.17 12l-4.58 4.59L10 18l6-6z"/></symbol>
  <symbol viewBox="0 0 24 24" id="mdf-expand_less"><path d="m12 8-6 6 1.41 1.41L12 10.83l4.59 4.58L18 14z"/></symbol>
  <symbol viewBox="0 0 24 24" id="mdf-comment"><path d="M21.99 4c0-1.1-.89-2-1.99-2H4c-1.1 0-2 .9-2 2v12c0 1.1.9 2 2 2h14l4 4-.01-18zM18 14H6v-2h12v2zm0-3H6V9h12v2zm0-3H6V6h12v2z"/></symbol>
  <symbol viewBox="0 0 24 24" id="mdf-comments_disabled"><path d="M16.83 14H18v-2h-3.17l-1-1H18V9h-6.17l-1-1H18V6H8.83l-4-4H20c1.1 0 2 .9 2 2v15.17L16.83 14zM2.1 2.1.69 3.51 2 4.83V16c0 1.1.9 2 2 2h11.17l5.31 5.31 1.41-1.41L2.1 2.1zM6 9h.17l2 2H6V9zm0 5v-2h3.17l2 2H6z"/></symbol>
  <symbol viewBox="0 0 24 24" id="mdf-forum"><path d="M21 6h-2v9H6v2c0 .55.45 1 1 1h11l4 4V7c0-.55-.45-1-1-1zm-4 6V3c0-.55-.45-1-1-1H3c-.55 0-1 .45-1 1v14l4-4h10c.55 0 1-.45 1-1z"/></symbol>
  <symbol viewBox="0 0 24 24" id="mdf-chat"><path d="M20 2H4c-1.1 0-1.99.9-1.99 2L2 22l4-4h14c1.1 0 2-.9 2-2V4c0-1.1-.9-2-2-2zM6 9h12v2H6V9zm8 5H6v-2h8v2zm4-6H6V6h12v2z"/></symbol>
  <symbol viewBox="0 0 24 24" id="mdf-favorite"><path d="m12 21.35-1.45-1.32C5.4 15.36 2 12.28 2 8.5 2 5.42 4.42 3 7.5 3c1.74 0 3.41.81 4.5 2.09C13.09 3.81 14.76 3 16.5 3 19.58 3 22 5.42 22 8.5c0 3.78-3.4 6.86-8.55 11.54L12 21.35z"/></symbol>
  <symbol viewBox="0 0 24 24" id="mdf-notifications_none"><path d="M12 22c1.1 0 2-.9 2-2h-4c0 1.1.9 2 2 2zm6-6v-5c0-3.07-1.63-5.64-4.5-6.32V4c0-.83-.67-1.5-1.5-1.5s-1.5.67-1.5 1.5v.68C7.64 5.36 6 7.92 6 11v5l-2 2v1h16v-1l-2-2zm-2 1H8v-6c0-2.48 1.51-4.5 4-4.5s4 2.02 4 4.5v6z"/></symbol>
  <symbol viewBox="0 0 24 24" id="mdf-favorite_border"><path d="M16.5 3c-1.74 0-3.41.81-4.5 2.09C10.91 3.81 9.24 3 7.5 3 4.42 3 2 5.42 2 8.5c0 3.78 3.4 6.86 8.55 11.54L12 21.35l1.45-1.32C18.6 15.36 22 12.28 22 8.5 22 5.42 19.58 3 16.5 3zm-4.4 15.55-.1.1-.1-.1C7.14 14.24 4 11.39 4 8.5 4 6.5 5.5 5 7.5 5c1.54 0 3.04.99 3.57 2.36h1.87C13.46 5.99 14.96 5 16.5 5c2 0 3.5 1.5 3.5 3.5 0 2.89-3.14 5.74-7.9 10.05z"/></symbol>
  <symbol viewBox="0 0 24 24" id="mdf-close_fullscreen"><path d="M22 3.41 16.71 8.7 20 12h-8V4l3.29 3.29L20.59 2 22 3.41zM3.41 22l5.29-5.29L12 20v-8H4l3.29 3.29L2 20.59 3.41 22z"/></symbol>
  <symbol viewBox="0 0 24 24" id="mdf-add_reaction"><path d="M18 9V7h-2V2.84A9.929 9.929 0 0 0 11.99 2C6.47 2 2 6.48 2 12s4.47 10 9.99 10C17.52 22 22 17.52 22 12c0-1.05-.17-2.05-.47-3H18zm-2.5-1c.83 0 1.5.67 1.5 1.5s-.67 1.5-1.5 1.5-1.5-.67-1.5-1.5.67-1.5 1.5-1.5zm-7 0c.83 0 1.5.67 1.5 1.5S9.33 11 8.5 11 7 10.33 7 9.5 7.67 8 8.5 8zm3.5 9.5c-2.33 0-4.31-1.46-5.11-3.5h10.22c-.8 2.04-2.78 3.5-5.11 3.5zM22 3h2v2h-2v2h-2V5h-2V3h2V1h2v2z"/></symbol>
  <symbol viewBox="0 0 24 24" id="mdf-open_in_full"><path d="M21 11V3h-8l3.29 3.29-10 10L3 13v8h8l-3.29-3.29 10-10z"/></symbol>
  <symbol viewBox="0 0 24 24" id="mdf-widgets"><path d="M13 13v8h8v-8h-8zM3 21h8v-8H3v8zM3 3v8h8V3H3zm13.66-1.31L11 7.34 16.66 13l5.66-5.66-5.66-5.65z"/></symbol>
  <symbol viewBox="0 0 24 24" id="mdf-fast_forward"><path d="m4 18 8.5-6L4 6v12zm9-12v12l8.5-6L13 6z"/></symbol>
  <symbol viewBox="0 0 24 24" id="mdf-format_italic"><path d="M10 4v3h2.21l-3.42 8H6v3h8v-3h-2.21l3.42-8H18V4z"/></symbol>
  <symbol viewBox="0 0 24 24" id="mdf-notification_important"><path d="M18 16v-5c0-3.07-1.64-5.64-4.5-6.32V4c0-.83-.67-1.5-1.5-1.5s-1.5.67-1.5 1.5v.68C7.63 5.36 6 7.92 6 11v5l-2 2v1h16v-1l-2-2zm-5 0h-2v-2h2v2zm0-4h-2V8h2v4zm-1 10c1.1 0 2-.9 2-2h-4a2 2 0 0 0 2 2z"/></symbol>
  <symbol viewBox="0 0 24 24" id="mdf-add"><path d="M19 13h-6v6h-2v-6H5v-2h6V5h2v6h6v2z"/></symbol>
  <symbol viewBox="0 0 24 24" id="mdf-add_circle"><path d="M12 2C6.48 2 2 6.48 2 12s4.48 10 10 10 10-4.48 10-10S17.52 2 12 2zm5 11h-4v4h-2v-4H7v-2h4V7h2v4h4v2z"/></symbol>
  <symbol viewBox="0 0 24 24" id="mdf-add_box"><path d="M19 3H5a2 2 0 0 0-2 2v14a2 2 0 0 0 2 2h14c1.1 0 2-.9 2-2V5c0-1.1-.9-2-2-2zm-2 10h-4v4h-2v-4H7v-2h4V7h2v4h4v2z"/></symbol>
  <symbol viewBox="0 0 24 24" id="mdf-format_quote"><path d="M6 17h3l2-4V7H5v6h3zm8 0h3l2-4V7h-6v6h3z"/></symbol>
  <symbol viewBox="0 0 24 24" id="mdf-shuffle"><path d="M10.59 9.17 5.41 4 4 5.41l5.17 5.17 1.42-1.41zM14.5 4l2.04 2.04L4 18.59 5.41 20 17.96 7.46 20 9.5V4h-5.5zm.33 9.41-1.41 1.41 3.13 3.13L14.5 20H20v-5.5l-2.04 2.04-3.13-3.13z"/></symbol>
  <symbol viewBox="0 0 24 24" id="mdf-redo"><path d="M18.4 10.6C16.55 8.99 14.15 8 11.5 8c-4.65 0-8.58 3.03-9.96 7.22L3.9 16a8.002 8.002 0 0 1 7.6-5.5c1.95 0 3.73.72 5.12 1.88L13 16h9V7l-3.6 3.6z"/></symbol>
  <symbol viewBox="0 0 24 24" id="mdf-reply"><path d="M10 9V5l-7 7 7 7v-4.1c5 0 8.5 1.6 11 5.1-1-5-4-10-11-11z"/></symbol>
  <symbol viewBox="0 0 24 24" id="mdf-share"><path d="M18 16.08c-.76 0-1.44.3-1.96.77L8.91 12.7c.05-.23.09-.46.09-.7s-.04-.47-.09-.7l7.05-4.11c.54.5 1.25.81 2.04.81 1.66 0 3-1.34 3-3s-1.34-3-3-3-3 1.34-3 3c0 .24.04.47.09.7L8.04 9.81C7.5 9.31 6.79 9 6 9c-1.66 0-3 1.34-3 3s1.34 3 3 3c.79 0 1.5-.31 2.04-.81l7.12 4.16c-.05.21-.08.43-.08.65 0 1.61 1.31 2.92 2.92 2.92 1.61 0 2.92-1.31 2.92-2.92s-1.31-2.92-2.92-2.92z"/></symbol>
  <symbol viewBox="0 0 24 24" id="mdf-shield"><path d="M12 1 3 5v6c0 5.55 3.84 10.74 9 12 5.16-1.26 9-6.45 9-12V5l-9-4z"/></symbol>
  <symbol viewBox="0 0 24 24" id="mdf-sync"><path d="M12 4V1L8 5l4 4V6c3.31 0 6 2.69 6 6 0 1.01-.25 1.97-.7 2.8l1.46 1.46A7.93 7.93 0 0 0 20 12c0-4.42-3.58-8-8-8zm0 14c-3.31 0-6-2.69-6-6 0-1.01.25-1.97.7-2.8L5.24 7.74A7.93 7.93 0 0 0 4 12c0 4.42 3.58 8 8 8v3l4-4-4-4v3z"/></symbol>
  <symbol viewBox="0 0 24 24" id="mdf-close"><path d="M19 6.41 17.59 5 12 10.59 6.41 5 5 6.41 10.59 12 5 17.59 6.41 19 12 13.41 17.59 19 19 17.59 13.41 12z"/></symbol>
  <symbol viewBox="0 0 24 24" id="mdf-cancel"><path d="M12 2C6.47 2 2 6.47 2 12s4.47 10 10 10 10-4.47 10-10S17.53 2 12 2zm5 13.59L15.59 17 12 13.41 8.41 17 7 15.59 10.59 12 7 8.41 8.41 7 12 10.59 15.59 7 17 8.41 13.41 12 17 15.59z"/></symbol>
</svg>
